<svg width="545" height="341" viewBox="0 0 545 341" fill="none" xmlns="http://www.w3.org/2000/svg">
<g clip-path="url(#clip0_0_2531)">
<path d="M253.214 0.58289L261.594 82.3349L276.948 1.60158L273.868 83.7242L300.309 5.91346L285.83 86.8083L322.842 13.4346L297.246 91.5271L344.11 24.0186L307.894 97.7889L363.697 37.4595L317.567 105.472L381.224 53.4957L326.077 114.426L396.348 71.8149L333.258 124.477L408.775 92.0608L338.97 135.43L418.263 113.839L343.102 147.072L424.629 136.726L345.574 159.175L427.747 160.276L346.337 171.504L427.557 184.031L345.377 183.82L424.063 207.528L342.712 195.882L417.333 230.311L338.395 207.455L407.497 251.935L332.508 218.316L394.748 271.979L325.168 228.251L379.334 290.055L316.516 237.068L361.553 305.809L306.721 244.595L341.754 318.935L295.974 250.686L320.32 329.178L284.484 255.222L297.669 336.338L272.475 258.115L274.242 340.276L260.18 259.308L250.495 340.915L247.838 258.778L226.89 338.244L235.69 256.536L203.887 332.313L223.973 252.625L181.933 323.238L212.914 247.121L161.455 311.196L202.728 240.132L142.853 296.422L193.615 231.793L126.488 279.202L185.75 222.267L112.679 259.872L179.288 211.739L101.694 238.809L174.354 200.415L93.7477 216.422L171.044 188.513L88.9944 193.147L169.423 176.267L87.5266 169.436L169.521 163.915L89.373 145.753L171.338 151.696L94.4976 122.556L174.838 139.849L102.801 100.299L179.952 128.605L114.12 79.4137L186.582 118.182L128.237 60.3072L194.597 108.782L144.875 43.3512L203.843 100.59L163.711 28.8757L214.139 93.7647L184.378 17.1627L225.285 88.4384L206.474 8.43989L237.063 84.7151L229.569 2.87721L249.245 82.6673L253.214 0.58289Z" fill="#FFD990"/>
<path d="M7.12629 117.333C7.80475 101.423 20.4029 88.6019 36.2984 87.6447L439.565 63.3615C452.252 62.5975 464.124 69.6381 469.539 81.1366L538.233 227.005C547.647 246.994 533.773 270.145 511.706 271.269L33.5226 295.622C15.2423 296.553 0.123092 281.558 0.902936 263.271L7.12629 117.333Z" fill="#302234"/>
<path d="M475.968 75.2498C472.917 68.6684 477.448 61.0803 484.689 60.6442L524.737 58.2327C534.363 57.6531 542.425 65.4298 542.194 75.0702L539.724 177.751C539.527 185.968 528.37 188.288 524.913 180.831L475.968 75.2498Z" fill="#302234"/>
<path d="M100.569 206.358L95.9923 130.358L80.7923 131.273L85.3687 207.273L100.569 206.358ZM100.569 206.358L101.484 221.558L71.084 223.388L70.1687 208.188L54.9687 209.104L50.3922 133.104L65.5923 132.188L64.677 116.988L110.277 114.242L111.192 129.442L126.392 128.527L130.053 189.327L114.853 190.242L115.769 205.442L100.569 206.358ZM116.684 220.642L115.769 205.442L130.969 204.527L131.884 219.727L116.684 220.642ZM181.795 170.956L179.049 125.356L163.849 126.272L166.595 171.872L181.795 170.956ZM138.941 219.302L133.449 128.102L148.649 127.187L147.734 111.987L193.334 109.241L194.249 124.441L209.449 123.526L214.941 214.726L184.541 216.556L182.71 186.156L167.51 187.072L169.341 217.472L138.941 219.302Z" fill="white"/>
<path d="M240.2 142.608L239.508 131.125L233.767 131.471L234.458 142.954L240.2 142.608ZM239.162 125.383L238.471 113.9L232.729 114.246L233.421 125.729L239.162 125.383ZM223.321 149.387L220.901 109.196L243.867 107.813L244.212 113.555L249.954 113.209L250.645 124.692L244.904 125.038L245.25 130.779L250.991 130.433L251.683 141.916L245.941 142.262L246.287 148.004L223.321 149.387ZM270.881 129.236L269.844 112.011L264.102 112.357L265.14 129.581L270.881 129.236ZM254.694 147.497L252.619 113.048L258.361 112.703L258.015 106.961L275.24 105.924L275.585 111.666L281.327 111.32L283.401 145.769L271.918 146.46L271.227 134.977L265.485 135.323L266.177 146.806L254.694 147.497ZM297.55 144.917L295.821 116.209L284.338 116.901L283.647 105.418L312.354 103.689L313.046 115.172L301.563 115.864L303.291 144.571L297.55 144.917ZM328.923 143.028L327.194 114.32L315.711 115.012L315.02 103.529L343.727 101.8L344.419 113.283L332.936 113.974L334.664 142.682L328.923 143.028ZM348.813 141.83L346.393 101.639L357.876 100.948L359.95 135.397L377.174 134.36L377.52 140.101L348.813 141.83ZM380.186 139.941L377.766 99.7503L406.473 98.0217L407.164 109.505L389.94 110.542L390.286 116.283L401.769 115.592L402.114 121.333L390.631 122.025L391.323 133.508L408.547 132.471L408.893 138.212L380.186 139.941Z" fill="#FFD990"/>
<path d="M251.911 190.693L250.345 164.684L241.676 165.206L243.242 191.215L251.911 190.693ZM227.469 218.268L223.814 157.581L258.493 155.492L259.015 164.162L267.685 163.64L269.251 189.649L260.581 190.171L261.103 198.841L243.764 199.885L244.808 217.224L227.469 218.268ZM299.285 187.84L297.718 161.831L289.049 162.353L290.615 188.362L299.285 187.84ZM274.842 215.415L271.709 163.398L280.379 162.875L279.857 154.206L305.866 152.64L306.388 161.309L315.058 160.787L318.19 212.805L300.851 213.849L299.807 196.51L291.137 197.032L292.181 214.371L274.842 215.415ZM321.693 203.893L321.171 195.223L329.841 194.701L330.363 203.371L321.693 203.893ZM354.283 167.126L353.761 158.457L362.431 157.935L362.953 166.604L354.283 167.126ZM330.885 212.041L330.363 203.371L347.702 202.327L346.658 184.988L329.318 186.032L328.796 177.362L320.127 177.884L319.083 160.545L327.752 160.023L327.23 151.353L353.239 149.787L353.761 158.457L336.422 159.501L337.466 176.84L354.805 175.796L355.327 184.466L363.997 183.944L365.041 201.283L356.372 201.805L356.894 210.475L330.885 212.041ZM369.066 201.04L368.544 192.371L377.214 191.849L377.736 200.518L369.066 201.04ZM401.656 164.274L401.134 155.604L409.804 155.082L410.326 163.752L401.656 164.274ZM378.258 209.188L377.736 200.518L395.075 199.474L394.031 182.135L376.692 183.179L376.17 174.509L367.5 175.032L366.456 157.692L375.126 157.17L374.603 148.501L400.612 146.934L401.134 155.604L383.795 156.648L384.839 173.987L402.179 172.943L402.701 181.613L411.37 181.091L412.414 198.43L403.745 198.952L404.267 207.622L378.258 209.188Z" fill="#FFD990"/>
<path d="M244.154 143.667L243.463 132.184L237.721 132.529L238.413 144.012L244.154 143.667ZM243.117 126.442L242.425 114.959L236.684 115.305L237.375 126.788L243.117 126.442ZM227.275 150.445L224.855 110.255L247.821 108.872L248.167 114.613L253.908 114.268L254.6 125.751L248.858 126.096L249.204 131.838L254.946 131.492L255.637 142.975L249.896 143.321L250.241 149.062L227.275 150.445ZM274.836 130.294L273.798 113.07L268.057 113.416L269.094 130.64L274.836 130.294ZM258.648 148.556L256.574 114.107L262.315 113.761L261.97 108.02L279.194 106.983L279.54 112.724L285.281 112.379L287.356 146.827L275.873 147.519L275.181 136.036L269.44 136.382L270.131 147.865L258.648 148.556ZM301.504 145.975L299.776 117.268L288.293 117.959L287.601 106.477L316.309 104.748L317 116.231L305.517 116.922L307.246 145.63L301.504 145.975ZM332.877 144.086L331.149 115.379L319.666 116.07L318.974 104.587L347.682 102.859L348.373 114.342L336.89 115.033L338.619 143.741L332.877 144.086ZM352.767 142.889L350.347 102.698L361.83 102.007L363.905 136.456L381.129 135.418L381.475 141.16L352.767 142.889ZM384.14 140.999L381.72 100.809L410.428 99.0804L411.119 110.563L393.895 111.601L394.24 117.342L405.723 116.651L406.069 122.392L394.586 123.083L395.277 134.566L412.502 133.529L412.848 139.271L384.14 140.999Z" fill="white"/>
<path d="M255.866 191.752L254.3 165.743L245.63 166.265L247.196 192.274L255.866 191.752ZM231.423 219.327L227.769 158.639L262.447 156.551L262.969 165.221L271.639 164.699L273.205 190.707L264.536 191.229L265.058 199.899L247.718 200.943L248.762 218.283L231.423 219.327ZM303.239 188.899L301.673 162.89L293.003 163.412L294.569 189.421L303.239 188.899ZM278.796 216.474L275.664 164.456L284.334 163.934L283.812 155.264L309.821 153.698L310.343 162.368L319.012 161.846L322.145 213.864L304.805 214.908L303.761 197.569L295.092 198.091L296.136 215.43L278.796 216.474ZM325.648 204.952L325.125 196.282L333.795 195.76L334.317 204.43L325.648 204.952ZM358.238 168.185L357.716 159.515L366.385 158.993L366.907 167.663L358.238 168.185ZM334.839 213.099L334.317 204.43L351.656 203.386L350.612 186.046L333.273 187.09L332.751 178.421L324.081 178.943L323.037 161.604L331.707 161.081L331.185 152.412L357.194 150.846L357.716 159.515L340.377 160.559L341.421 177.899L358.76 176.855L359.282 185.524L367.952 185.002L368.996 202.341L360.326 202.863L360.848 211.533L334.839 213.099ZM373.021 202.099L372.499 193.429L381.168 192.907L381.69 201.577L373.021 202.099ZM405.611 165.332L405.089 156.663L413.759 156.141L414.281 164.81L405.611 165.332ZM382.212 210.247L381.69 201.577L399.03 200.533L397.985 183.194L380.646 184.238L380.124 175.568L371.455 176.09L370.41 158.751L379.08 158.229L378.558 149.559L404.567 147.993L405.089 156.663L387.75 157.707L388.794 175.046L406.133 174.002L406.655 182.672L415.325 182.15L416.369 199.489L407.699 200.011L408.221 208.68L382.212 210.247Z" fill="white"/>
<path d="M97.0758 263.023L96.8531 259.325L100.55 259.103L100.773 262.8L97.0758 263.023ZM110.975 247.343L110.752 243.645L114.449 243.423L114.672 247.12L110.975 247.343ZM100.996 266.497L100.773 262.8L108.168 262.355L107.723 254.96L100.328 255.405L100.105 251.708L96.4079 251.931L95.9626 244.536L99.6599 244.313L99.4373 240.616L110.529 239.948L110.752 243.645L103.357 244.091L103.803 251.485L111.197 251.04L111.42 254.737L115.117 254.515L115.563 261.909L111.865 262.132L112.088 265.829L100.996 266.497ZM117.502 265.503L115.943 239.622L134.43 238.509L134.875 245.904L123.783 246.571L124.006 250.269L131.401 249.823L131.623 253.521L124.228 253.966L124.674 261.361L135.766 260.693L135.988 264.39L117.502 265.503ZM148.129 252.527L147.461 241.435L143.764 241.658L144.432 252.75L148.129 252.527ZM137.705 264.287L136.369 242.103L140.066 241.88L139.844 238.183L150.936 237.515L151.159 241.212L154.856 240.99L156.192 263.174L148.797 263.619L148.352 256.224L144.654 256.447L145.1 263.842L137.705 264.287ZM157.686 259.373L157.463 255.676L161.16 255.453L161.383 259.15L157.686 259.373ZM171.584 243.693L171.362 239.996L175.059 239.773L175.282 243.47L171.584 243.693ZM161.606 262.848L161.383 259.15L168.778 258.705L168.332 251.31L160.938 251.756L160.715 248.058L157.018 248.281L156.572 240.886L160.27 240.664L160.047 236.966L171.139 236.298L171.362 239.996L163.967 240.441L164.412 247.836L171.807 247.39L172.03 251.088L175.727 250.865L176.172 258.26L172.475 258.482L172.698 262.18L161.606 262.848ZM188.981 257.488L187.868 239.002L184.17 239.224L185.284 257.711L188.981 257.488ZM181.809 261.631L181.586 257.934L177.889 258.156L176.776 239.67L180.473 239.447L180.25 235.75L191.342 235.082L191.565 238.779L195.262 238.556L196.376 257.043L192.678 257.266L192.901 260.963L181.809 261.631ZM198.315 260.637L196.756 234.756L204.151 234.31L204.374 238.008L208.071 237.785L208.294 241.483L211.991 241.26L212.214 244.957L215.911 244.735L215.243 233.643L218.94 233.42L220.499 259.301L216.802 259.524L216.356 252.129L212.659 252.352L212.436 248.655L208.739 248.877L208.516 245.18L204.819 245.403L205.709 260.192L198.315 260.637ZM227.605 258.873L227.382 255.176L231.08 254.953L230.189 240.164L226.492 240.387L226.269 236.689L229.966 236.467L229.744 232.769L237.138 232.324L238.474 254.508L242.172 254.286L242.394 257.983L227.605 258.873Z" fill="white"/>
<path d="M105.427 209.69L100.85 133.69L85.6503 134.605L90.2267 210.606L105.427 209.69ZM105.427 209.69L106.342 224.89L75.942 226.721L75.0267 211.521L59.8267 212.436L55.2502 136.436L70.4503 135.521L69.535 120.321L115.135 117.575L116.05 132.775L131.25 131.86L134.911 192.66L119.711 193.575L120.627 208.775L105.427 209.69ZM121.542 223.975L120.627 208.775L135.827 207.86L136.742 223.06L121.542 223.975ZM186.653 174.289L183.907 128.689L168.707 129.604L171.453 175.204L186.653 174.289ZM143.799 222.635L138.307 131.435L153.507 130.519L152.592 115.319L198.192 112.573L199.107 127.773L214.307 126.858L219.799 218.058L189.399 219.889L187.568 189.489L172.368 190.404L174.199 220.804L143.799 222.635Z" fill="#FFD990"/>
<rect x="67.1602" y="251.485" width="4.46097" height="4.46097" transform="rotate(-3.44598 67.1602 251.485)" fill="white"/>
<rect x="66.8921" y="247.032" width="4.46097" height="4.46097" transform="rotate(-3.44598 66.8921 247.032)" fill="white"/>
<rect x="66.6239" y="242.579" width="4.46097" height="4.46097" transform="rotate(-3.44598 66.6239 242.579)" fill="white"/>
<rect x="75.7983" y="246.496" width="4.46097" height="4.46097" transform="rotate(-3.44598 75.7983 246.496)" fill="white"/>
<rect x="80.2512" y="246.228" width="4.46097" height="4.46097" transform="rotate(-3.44598 80.2512 246.228)" fill="white"/>
<rect x="75.5302" y="242.043" width="4.46097" height="4.46097" transform="rotate(-3.44598 75.5302 242.043)" fill="white"/>
<rect x="62.4397" y="247.3" width="4.46097" height="4.46097" transform="rotate(-3.44598 62.4397 247.3)" fill="white"/>
<rect x="62.7078" y="251.753" width="4.46097" height="4.46097" transform="rotate(-3.44598 62.7078 251.753)" fill="white"/>
<rect x="67.4283" y="255.938" width="4.46097" height="4.46097" transform="rotate(-3.44598 67.4283 255.938)" fill="white"/>
<rect x="71.0768" y="242.311" width="4.46097" height="4.46097" transform="rotate(-3.44598 71.0768 242.311)" fill="white"/>
<rect x="71.345" y="246.764" width="4.46097" height="4.46097" transform="rotate(-3.44598 71.345 246.764)" fill="white"/>
<rect x="71.6131" y="251.217" width="4.46097" height="4.46097" transform="rotate(-3.44598 71.6131 251.217)" fill="white"/>
<rect x="71.8812" y="255.67" width="4.46097" height="4.46097" transform="rotate(-3.44598 71.8812 255.67)" fill="white"/>
<rect x="72.1494" y="260.123" width="4.46097" height="4.46097" transform="rotate(-3.44598 72.1494 260.123)" fill="white"/>
<rect x="72.4175" y="264.575" width="4.46097" height="4.46097" transform="rotate(-3.44598 72.4175 264.575)" fill="white"/>
<rect x="67.6965" y="260.391" width="4.46097" height="4.46097" transform="rotate(-3.44598 67.6965 260.391)" fill="white"/>
<rect x="76.0665" y="250.949" width="4.46097" height="4.46097" transform="rotate(-3.44598 76.0665 250.949)" fill="white"/>
<rect x="80.5193" y="250.68" width="4.46097" height="4.46097" transform="rotate(-3.44598 80.5193 250.68)" fill="white"/>
<rect x="518.873" y="83.8525" width="4.46097" height="4.46097" transform="rotate(-21.7854 518.873 83.8525)" fill="white"/>
<rect x="513.52" y="81.557" width="4.46097" height="4.46097" transform="rotate(-21.7854 513.52 81.557)" fill="white"/>
<rect x="516.578" y="89.2045" width="4.46097" height="4.46097" transform="rotate(-21.7854 516.578 89.2045)" fill="white"/>
<rect x="514.281" y="94.5564" width="4.46097" height="4.46097" transform="rotate(-21.7854 514.281 94.5564)" fill="white"/>
<rect x="510.458" y="96.0847" width="4.46097" height="4.46097" transform="rotate(-21.7854 510.458 96.0847)" fill="white"/>
<rect x="508.93" y="92.261" width="4.46097" height="4.46097" transform="rotate(-21.7854 508.93 92.261)" fill="white"/>
<rect x="507.401" y="88.4373" width="4.46097" height="4.46097" transform="rotate(-21.7854 507.401 88.4373)" fill="white"/>
<rect x="505.873" y="84.6135" width="4.46097" height="4.46097" transform="rotate(-21.7854 505.873 84.6135)" fill="white"/>
<rect x="508.168" y="79.2616" width="4.46097" height="4.46097" transform="rotate(-21.7854 508.168 79.2616)" fill="white"/>
<rect x="504.345" y="80.7898" width="4.46097" height="4.46097" transform="rotate(-21.7854 504.345 80.7898)" fill="white"/>
<rect x="76.3346" y="255.401" width="4.46097" height="4.46097" transform="rotate(-3.44598 76.3346 255.401)" fill="white"/>
<rect x="76.6027" y="259.854" width="4.46097" height="4.46097" transform="rotate(-3.44598 76.6027 259.854)" fill="white"/>
</g>
<defs>
<clipPath id="clip0_0_2531">
<rect width="545" height="341" fill="white"/>
</clipPath>
</defs>
</svg>
