<svg width="101" height="100" viewBox="0 0 101 100" fill="none" xmlns="http://www.w3.org/2000/svg">
<path d="M55.8846 90V90.7692H59.7308V90H55.8846Z" fill="#363534"/>
<path d="M29.7308 90V90.7692H34.3461V90H29.7308Z" fill="#2F1D1D"/>
<path d="M55.8846 80.7692V85.3846V90H59.7308V85.3846V80.7692H55.8846Z" fill="#2D2A2A"/>
<path d="M29.7308 80.7692V85.3846V86.1539V90H34.3461V85.3846V80.7692H29.7308Z" fill="#110E0E"/>
<path d="M55.8846 80V80.7692H59.7308V80H55.8846Z" fill="#3E2725"/>
<path d="M29.7308 80V80.7692H34.3461V80H29.7308Z" fill="#2F1D1D"/>
<path d="M55.1154 75.3846V76.1538H55.8846L55.1154 75.3846Z" fill="#5F342F"/>
<path d="M35.1154 75.3846V76.1538H55.1154V75.3846H35.1154Z" fill="#6F6D5D"/>
<path d="M35.1154 75.3846L34.3461 76.1538H35.1154V75.3846Z" fill="#502B2C"/>
<path d="M70.5 70.7692V75.3846H80.5V70.7692H70.5Z" fill="#9C9A9A"/>
<path d="M29.7308 70.7692V75.3846V76.1539V80H34.3461V76.1539L35.1154 75.3846V70.7692H34.3461H29.7308Z" fill="#3E2725"/>
<path d="M28.9615 70.7692V75.3846H29.7307V70.7692H28.9615Z" fill="#898C7A"/>
<path d="M19.7308 70.7692V75.3846H28.9615V70.7692H19.7308Z" fill="#9C9A9A"/>
<path d="M70.5 70V70.7692H80.5V70H70.5Z" fill="#AAA7A2"/>
<path d="M50.5 70L59.7308 70.7692V70H50.5Z" fill="#3E2725"/>
<path d="M45.1154 70L35.1154 70.7692V75.3846H55.1154L55.8846 76.1538V80H59.7308V70.7692L50.5 70H49.7308H45.1154Z" fill="#502B2C"/>
<path d="M35.1154 70V70.7692L45.1154 70H35.1154Z" fill="#3E2725"/>
<path d="M34.3461 70V70.7692H35.1154V70H34.3461Z" fill="#453F3C"/>
<path d="M29.7308 70V70.7692H34.3461V70H29.7308Z" fill="#4D4B48"/>
<path d="M28.9615 70V70.7692H29.7307V70H28.9615Z" fill="#9C9A9A"/>
<path d="M19.7308 70V70.7692H28.9615V70H19.7308Z" fill="#AAA7A2"/>
<path d="M34.3461 66.1539V70H35.1154V66.1539H34.3461Z" fill="#898C7A"/>
<path d="M80.5 65.3846V66.1538V70H85.8846V65.3846H80.5Z" fill="#9C9A9A"/>
<path d="M79.7307 65.3846L80.5 66.1538V65.3846H79.7307Z" fill="#B7B7B6"/>
<path d="M70.5 65.3846V70H80.5V66.1538L79.7308 65.3846H70.5Z" fill="#C8C6C2"/>
<path d="M69.7307 65.3846V70H70.5V65.3846H69.7307Z" fill="#4D4B48"/>
<path d="M65.8846 65.3846V70H69.7308V65.3846H65.8846Z" fill="#2F1D1D"/>
<path d="M50.5 65.3846V70H59.7308V65.3846H50.5Z" fill="#2F1D1D"/>
<path d="M49.7307 65.3846V70H50.5V65.3846H49.7307Z" fill="#2D2A2A"/>
<path d="M45.1154 65.3846V70H49.7308V65.3846H45.1154Z" fill="#453F3C"/>
<path d="M35.1154 65.3846V66.1538V70H45.1154V65.3846H35.1154Z" fill="#2F1D1D"/>
<path d="M34.3461 65.3846V66.1538H35.1154V65.3846H34.3461Z" fill="#79846D"/>
<path d="M29.7308 65.3846V70H34.3461V66.1538V65.3846H29.7308Z" fill="#9C9A9A"/>
<path d="M28.9615 65.3846V70H29.7307V65.3846H28.9615Z" fill="#B7B7B6"/>
<path d="M19.7308 65.3846V70H28.9615V65.3846H19.7308Z" fill="#C8C6C2"/>
<path d="M19.7308 65.3846V70H20.5V65.3846H19.7308Z" fill="#6F6D5D"/>
<path d="M15.8846 65.3846V70H19.7308V65.3846H15.8846Z" fill="#2F1D1D"/>
<path d="M65.1154 60.7692V70H65.8846V65.3846V60.7692H65.1154Z" fill="#4D4B48"/>
<path d="M69.7307 60V65.3846H70.5V60H69.7307Z" fill="#453F3C"/>
<path d="M65.8846 60V60.7692V65.3846H69.7308V60H65.8846Z" fill="#2D2A2A"/>
<path d="M19.7308 60V65.3846H20.5V60.7692V60H19.7308Z" fill="#453F3C"/>
<path d="M15.8846 60V60.7692V65.3846H19.7308V60H15.8846Z" fill="#110E0E"/>
<path d="M69.7307 50V60H70.5V50H69.7307Z" fill="#614939"/>
<path d="M65.8846 50V60H69.7308V50H65.8846Z" fill="#502B2C"/>
<path d="M29.7308 50V65.3846H34.3461H35.1154V50H29.7308Z" fill="#3E2725"/>
<path d="M20.5 50V60H25.1154V50H20.5Z" fill="#3E2725"/>
<path d="M60.5 49.2308V50H65.1154V49.2308H60.5Z" fill="#5F342F"/>
<path d="M60.5 49.2308L59.7307 50H60.5V49.2308Z" fill="#52362B"/>
<path d="M45.1154 49.2308V50H55.1154V49.2308H45.1154Z" fill="#BF4034"/>
<path d="M39.7308 49.2308L45.1154 50V49.2308H39.7308Z" fill="#A1382E"/>
<path d="M55.1154 45.3846V49.2308V50L55.8846 45.3846H55.1154Z" fill="#5F342F"/>
<path d="M39.7308 45.3846V49.2308H45.1154V45.3846H39.7308Z" fill="#B03F32"/>
<path d="M59.7307 44.6154V45.3846L60.5 44.6154H59.7307Z" fill="#70411F"/>
<path d="M55.8846 44.6154V45.3846H59.7308V44.6154H55.8846Z" fill="#A1382E"/>
<path d="M55.8846 44.6154L55.1154 45.3846H55.8846V44.6154Z" fill="#B03F32"/>
<path d="M39.7308 44.6154V45.3846H45.1154L39.7308 44.6154Z" fill="#BF4034"/>
<path d="M35.1154 44.6154V45.3846H39.7308V44.6154H35.1154Z" fill="#903D2D"/>
<path d="M65.1154 40V49.2308V50V60.7692H65.8846V60V50V49.2308V40H65.1154Z" fill="#5D5951"/>
<path d="M59.7307 40V44.6154H60.5V40H59.7307Z" fill="#903D2D"/>
<path d="M35.1154 40V44.6154H39.7308V40H35.1154Z" fill="#B03F32"/>
<path d="M34.3461 40L35.1154 45.3846V44.6154V40H34.3461Z" fill="#5F342F"/>
<path d="M29.7308 49.2308H25.1154V50H28.9615H29.7308H35.1154V65.3846H45.1154H49.7308H50.5H59.7308V50L60.5 49.2308H65.1154V40H60.5V44.6154L59.7308 45.3846H55.8846L55.1154 50H45.1154L39.7308 49.2308V45.3846H35.1154L34.3461 40H29.7308V49.2308Z" fill="#502B2C"/>
<path d="M55.1154 55.3846H49.7308V60H55.1154V55.3846Z" fill="#3E2725"/>
<path d="M45.1154 55.3846H39.7308V60H45.1154V55.3846Z" fill="#3E2725"/>
<path d="M25.1154 40V49.2308H29.7308V40H25.1154Z" fill="#3E2725"/>
<path d="M35.1154 39.2308V40H39.7308L35.1154 39.2308Z" fill="#BF4034"/>
<path d="M29.7308 39.2308V40H34.3461H35.1154V39.2308H34.3461H29.7308Z" fill="#903D2D"/>
<path d="M59.7307 35.3846V40H60.5V39.2308V35.3846H59.7307Z" fill="#966D47"/>
<path d="M35.1154 35.3846V39.2308L39.7308 40V44.6154L45.1154 45.3846V49.2308H55.1154V45.3846L55.8846 44.6154H59.7308V40V35.3846H35.1154Z" fill="#D4483B"/>
<path d="M34.3461 35.3846V39.2308H35.1154V35.3846H34.3461Z" fill="#BF4034"/>
<path d="M29.7308 35.3846V39.2308H34.3461V35.3846H29.7308Z" fill="#B03F32"/>
<path d="M59.7307 34.6154V35.3846H60.5V34.6154H59.7307Z" fill="#C0815F"/>
<path d="M35.1154 34.6154V35.3846H59.7308V34.6154H35.1154Z" fill="#E78B5B"/>
<path d="M29.7308 34.6154V35.3846H34.3461H35.1154V34.6154H29.7308Z" fill="#C0815F"/>
<path d="M59.7307 30V34.6154H60.5V30H59.7307Z" fill="#B89A84"/>
<path d="M29.7308 30V34.6154H35.1154V30H34.3461H29.7308Z" fill="#FBBE99"/>
<path d="M59.7307 29.2308V30H60.5V29.2308H59.7307Z" fill="#898C7A"/>
<path d="M55.8846 29.2308V30H59.7308V29.2308H55.8846Z" fill="#B89A84"/>
<path d="M55.1154 29.2308L55.8846 30V29.2308H55.1154Z" fill="#D79F82"/>
<path d="M45.1154 30V29.2308H39.7308L45.1154 30Z" fill="#B89A84"/>
<path d="M34.3461 29.2308V30H35.1154V29.2308H34.3461Z" fill="#D79F82"/>
<path d="M29.7308 29.2308V30H34.3461V29.2308H29.7308Z" fill="#B89A84"/>
<path d="M59.7307 25.3846V29.2308H60.5V25.3846H59.7307Z" fill="#5D5951"/>
<path d="M55.8846 25.3846V29.2308H59.7308V25.3846H55.8846Z" fill="#363534"/>
<path d="M55.1154 25.3846V29.2308H55.8846V25.3846H55.1154Z" fill="#5D5951"/>
<path d="M39.7308 25.3846V29.2308H45.1154V25.3846H39.7308Z" fill="#363534"/>
<path d="M59.7307 24.6154V25.3846H60.5V24.6154H59.7307Z" fill="#5F6956"/>
<path d="M55.8846 24.6154V25.3846H59.7308V24.6154H55.8846Z" fill="#4D4B48"/>
<path d="M55.8846 24.6154L55.1154 25.3846H55.8846V24.6154Z" fill="#6F6D5D"/>
<path d="M39.7308 24.6154V25.3846H45.1154L39.7308 24.6154Z" fill="#4D4B48"/>
<path d="M39.7308 20V24.6154L45.1154 25.3846V29.2308V30L39.7308 29.2308H35.1154V30V34.6154H59.7308V30H55.8846L55.1154 29.2308V25.3846L55.8846 24.6154H59.7308V20H39.7308Z" fill="#FFCDA9"/>
<path d="M35.1154 20V29.2308H39.7308V25.3846V24.6154V20H35.1154Z" fill="#FBBE99"/>
<path d="M59.7307 19.2308V20V24.6154H60.5V19.2308H59.7307Z" fill="#B89A84"/>
<path d="M35.1154 19.2308V20H39.7308H59.7308V19.2308H35.1154Z" fill="#E6B89B"/>
<path d="M35.1154 19.2308L34.3461 29.2308H35.1154V20V19.2308Z" fill="#6F6D5D"/>
<path d="M29.7308 14.6154V29.2308H34.3461L35.1154 19.2308V14.6154H34.3461H29.7308Z" fill="#4D4B48"/>
<path d="M59.7307 9.23077V19.2308H60.5L59.7307 9.23077Z" fill="#6F6D5D"/>
<path d="M39.7308 14.6154H35.1154V19.2308H59.7308V9.23077H39.7308V14.6154Z" fill="#5D5951"/>
<path d="M35.1154 9.23077V13.8462V14.6154H39.7308V9.23077H35.1154Z" fill="#4D4B48"/>
</svg>
