<svg width="101" height="100" viewBox="0 0 101 100" fill="none" xmlns="http://www.w3.org/2000/svg">
<path d="M61.61 90V90.7692H65.4561V90H61.61Z" fill="#706174"/>
<path d="M35.4562 90V90.7692H40.0716V90H35.4562Z" fill="#706174"/>
<path d="M61.61 80.7692V85.3846V90H65.4561V85.3846V80.7692H61.61Z" fill="#706174"/>
<path d="M35.4562 80.7692V85.3846V86.1539V90H40.0716V85.3846V80.7692H35.4562Z" fill="#706174"/>
<path d="M61.61 80V80.7692H65.4561V80H61.61Z" fill="#706174"/>
<path d="M35.4562 80V80.7692H40.0716V80H35.4562Z" fill="#706174"/>
<path d="M60.8408 75.3846V76.1538H61.61L60.8408 75.3846Z" fill="#706174"/>
<path d="M40.8408 75.3846V76.1538H60.8408V75.3846H40.8408Z" fill="#706174"/>
<path d="M40.8408 75.3846L40.0715 76.1538H40.8408V75.3846Z" fill="#706174"/>
<path d="M35.4562 70.7692V75.3846V76.1539V80H40.0716V76.1539L40.8408 75.3846V70.7692H40.0716H35.4562Z" fill="#706174"/>
<path d="M56.2254 70L65.4562 70.7692V70H56.2254Z" fill="#706174"/>
<path d="M50.8408 70L40.8408 70.7692V75.3846H60.8408L61.61 76.1538V80H65.4561V70.7692L56.2254 70H55.4561H50.8408Z" fill="#706174"/>
<path d="M40.8408 70V70.7692L50.8408 70H40.8408Z" fill="#706174"/>
<path d="M40.0715 70V70.7692H40.8408V70H40.0715Z" fill="#706174"/>
<path d="M35.4562 70V70.7692H40.0716V70H35.4562Z" fill="#706174"/>
<path d="M40.0715 66.1539V70H40.8408V66.1539H40.0715Z" fill="#706174"/>
<path d="M70.8408 65.3846V70H74.6869V65.3846H70.8408Z" fill="#706174"/>
<path d="M56.2254 65.3846V70H65.4562V65.3846H56.2254Z" fill="#706174"/>
<path d="M55.4562 65.3846V70H56.2254V65.3846H55.4562Z" fill="#706174"/>
<path d="M50.8408 65.3846V70H55.4561V65.3846H50.8408Z" fill="#706174"/>
<path d="M40.8408 65.3846V66.1538V70H50.8408V65.3846H40.8408Z" fill="#706174"/>
<path d="M40.0715 65.3846V66.1538H40.8408V65.3846H40.0715Z" fill="#706174"/>
<path d="M35.4562 65.3846V70H40.0716V66.1538V65.3846H35.4562Z" fill="#706174"/>
<path d="M70.8408 50V65.3846H74.6869V50H70.8408Z" fill="#706174"/>
<path d="M35.4562 50V65.3846H40.0716H40.8408V50H35.4562Z" fill="#706174"/>
<path d="M66.2254 49.2308V50H70.8408V49.2308H66.2254Z" fill="#706174"/>
<path d="M66.2254 49.2308L65.4562 50H66.2254V49.2308Z" fill="#706174"/>
<path d="M50.8408 49.2308V50H60.8408V49.2308H50.8408Z" fill="#706174"/>
<path d="M45.4562 49.2308L50.8408 50V49.2308H45.4562Z" fill="#706174"/>
<path d="M60.8408 45.3846V49.2308V50L61.61 45.3846H60.8408Z" fill="#706174"/>
<path d="M45.4562 45.3846V49.2308H50.8408V45.3846H45.4562Z" fill="#706174"/>
<path d="M65.4562 44.6154V45.3846L66.2254 44.6154H65.4562Z" fill="#706174"/>
<path d="M61.61 44.6154V45.3846H65.4561V44.6154H61.61Z" fill="#706174"/>
<path d="M61.61 44.6154L60.8408 45.3846H61.61V44.6154Z" fill="#706174"/>
<path d="M45.4562 44.6154V45.3846H50.8408L45.4562 44.6154Z" fill="#706174"/>
<path d="M40.8408 44.6154V45.3846H45.4561V44.6154H40.8408Z" fill="#706174"/>
<path d="M65.4562 40V44.6154H66.2254V40H65.4562Z" fill="#706174"/>
<path d="M40.8408 40V44.6154H45.4561V40H40.8408Z" fill="#706174"/>
<path d="M40.0715 40L40.8408 45.3846V44.6154V40H40.0715Z" fill="#706174"/>
<path d="M35.4562 40V49.2308V50H40.8408V65.3846H50.8408H55.4562H56.2254H65.4562V50L66.2254 49.2308H70.8408V40H66.2254V44.6154L65.4562 45.3846H61.61L60.8408 50H50.8408L45.4562 49.2308V45.3846H40.8408L40.0716 40H35.4562Z" fill="#706174"/>
<path d="M60.8408 55.3846H55.4562V60H60.8408V55.3846Z" fill="#706174"/>
<path d="M50.8408 55.3846H45.4562V60H50.8408V55.3846Z" fill="#706174"/>
<path d="M40.8408 39.2308V40H45.4561L40.8408 39.2308Z" fill="#706174"/>
<path d="M35.4562 39.2308V40H40.0716H40.8408V39.2308H40.0716H35.4562Z" fill="#706174"/>
<path d="M65.4562 35.3846V40H66.2254V39.2308V35.3846H65.4562Z" fill="#706174"/>
<path d="M40.8408 35.3846V39.2308L45.4561 40V44.6154L50.8408 45.3846V49.2308H60.8408V45.3846L61.61 44.6154H65.4561V40V35.3846H40.8408Z" fill="#706174"/>
<path d="M40.0715 35.3846V39.2308H40.8408V35.3846H40.0715Z" fill="#706174"/>
<path d="M35.4562 35.3846V39.2308H40.0716V35.3846H35.4562Z" fill="#706174"/>
<path d="M65.4562 34.6154V35.3846H66.2254V34.6154H65.4562Z" fill="#706174"/>
<path d="M40.8408 34.6154V35.3846H65.4561V34.6154H40.8408Z" fill="#706174"/>
<path d="M35.4562 34.6154V35.3846H40.0716H40.8408V34.6154H35.4562Z" fill="#706174"/>
<path d="M65.4562 30V34.6154H66.2254V30H65.4562Z" fill="#706174"/>
<path d="M35.4562 30V34.6154H40.8408V30H40.0716H35.4562Z" fill="#706174"/>
<path d="M65.4562 29.2308V30H66.2254V29.2308H65.4562Z" fill="#706174"/>
<path d="M61.61 29.2308V30H65.4561V29.2308H61.61Z" fill="#706174"/>
<path d="M60.8408 29.2308L61.61 30V29.2308H60.8408Z" fill="#706174"/>
<path d="M50.8408 30V29.2308H45.4562L50.8408 30Z" fill="#706174"/>
<path d="M40.0715 29.2308V30H40.8408V29.2308H40.0715Z" fill="#706174"/>
<path d="M35.4562 29.2308V30H40.0716V29.2308H35.4562Z" fill="#706174"/>
<path d="M65.4562 25.3846V29.2308H66.2254V25.3846H65.4562Z" fill="#706174"/>
<path d="M61.61 25.3846V29.2308H65.4561V25.3846H61.61Z" fill="#706174"/>
<path d="M60.8408 25.3846V29.2308H61.61V25.3846H60.8408Z" fill="#706174"/>
<path d="M45.4562 25.3846V29.2308H50.8408V25.3846H45.4562Z" fill="#706174"/>
<path d="M65.4562 24.6154V25.3846H66.2254V24.6154H65.4562Z" fill="#706174"/>
<path d="M61.61 24.6154V25.3846H65.4561V24.6154H61.61Z" fill="#706174"/>
<path d="M61.61 24.6154L60.8408 25.3846H61.61V24.6154Z" fill="#706174"/>
<path d="M45.4562 24.6154V25.3846H50.8408L45.4562 24.6154Z" fill="#706174"/>
<path d="M45.4561 20V24.6154L50.8408 25.3846V29.2308V30L45.4561 29.2308H40.8408V30V34.6154H65.4561V30H61.61L60.8408 29.2308V25.3846L61.61 24.6154H65.4561V20H45.4561Z" fill="#706174"/>
<path d="M40.8408 20V29.2308H45.4561V25.3846V24.6154V20H40.8408Z" fill="#706174"/>
<path d="M65.4562 19.2308V20V24.6154H66.2254V19.2308H65.4562Z" fill="#706174"/>
<path d="M40.8408 19.2308V20H45.4561H65.4561V19.2308H40.8408Z" fill="#706174"/>
<path d="M40.8408 19.2308L40.0715 29.2308H40.8408V20V19.2308Z" fill="#706174"/>
<path d="M35.4562 14.6154V29.2308H40.0716L40.8408 19.2308V14.6154H40.0716H35.4562Z" fill="#706174"/>
<path d="M65.4562 9.23077V19.2308H66.2254L65.4562 9.23077Z" fill="#706174"/>
<path d="M45.4561 14.6154H40.8408V19.2308H65.4561V9.23077H45.4561V14.6154Z" fill="#706174"/>
<path d="M40.8408 9.23077V13.8462V14.6154H45.4561V9.23077H40.8408Z" fill="#706174"/>
<rect width="5.38462" height="10" transform="matrix(-1 0 0 1 35.4562 40)" fill="#706174"/>
<rect width="4.61538" height="20" transform="matrix(-1 0 0 1 30.8408 50)" fill="#706174"/>
</svg>
