<svg width="101" height="100" viewBox="0 0 101 100" fill="none" xmlns="http://www.w3.org/2000/svg">
<path d="M79.8737 83.8462V89.2308H84.4891V83.8462H79.8737Z" fill="#422A1E"/>
<path d="M32.1814 83.077V87.6924H32.9507H36.7968V85.9172V85.5622V83.077H32.9507H32.1814Z" fill="#969690"/>
<path d="M79.8737 79.2308V83.8462H84.4891V79.2308H79.8737Z" fill="#23120F"/>
<path d="M62.9507 80.0001V84.6154V90.0001H67.5661V84.6154V80.0001H62.9507Z" fill="#7D4824"/>
<path d="M37.5661 80.0001V84.6154V90.0001H42.1814V84.6154V80.0001H37.5661Z" fill="#684022"/>
<path d="M84.4891 78.4616V79.2308H88.3353V78.4616H84.4891Z" fill="#51372C"/>
<path d="M62.9507 79.2308V80.0001H67.5661V79.2308H62.9507Z" fill="#A29404"/>
<path d="M27.5661 73.077V83.077H32.1814V73.077H27.5661Z" fill="#422A1E"/>
<path d="M84.4891 69.2308V78.4616H88.3353V69.2308H84.4891Z" fill="#422A1E"/>
<path d="M42.1814 70.0001V80.0001H52.9507V79.2308V74.6154H62.9507V79.2308H67.5661V70.0001H42.1814Z" fill="#BDAB02"/>
<path d="M37.5661 70.0001V80.0001H42.1814V70.0001H37.5661Z" fill="#A29404"/>
<path d="M22.1814 69.2308V73.077H27.5661V69.2308H22.1814Z" fill="#422A1E"/>
<path d="M84.4891 68.4616V69.2308H88.3353V68.4616H84.4891Z" fill="#2F1816"/>
<path d="M36.7968 69.2308V80.0001H37.5661V70.0001H42.1814H67.5661V69.2308H42.1814H37.5661H36.7968Z" fill="#897C24"/>
<path d="M84.4891 63.8462V68.4616H88.3353V63.8462H84.4891Z" fill="#23120F"/>
<path d="M42.1814 64.6154V69.2308H67.5661V64.6154H62.9507H57.5661H42.1814Z" fill="#7D4824"/>
<path d="M37.5661 64.6154V69.2308H42.1814V64.6154H37.5661Z" fill="#684022"/>
<path d="M36.7968 64.6154V69.2308H37.5661V64.6154H36.7968Z" fill="#7F5738"/>
<path d="M22.1814 64.6154V69.2308H27.5661V64.6154H26.7968H22.1814Z" fill="#FCBD98"/>
<path d="M62.9507 63.8462V64.6155H67.5661V63.8462H62.9507Z" fill="#4F622E"/>
<path d="M57.5661 63.8462V64.6155H62.9507V63.8462H57.5661Z" fill="#684022"/>
<path d="M42.1814 63.8462V64.6155H57.5661V63.8462H42.1814Z" fill="#4F622E"/>
<path d="M37.5661 63.8462V64.6155H42.1814V63.8462H37.5661Z" fill="#44572B"/>
<path d="M27.5661 63.8462V64.6155H32.1814V63.8462H27.5661Z" fill="#7F5738"/>
<path d="M57.5661 60.0001V63.8462H62.9507V60.0001H62.1814H57.5661Z" fill="#422A1E"/>
<path d="M27.5661 60.0001V63.8462H32.1814V60.0001H27.5661Z" fill="#684022"/>
<path d="M62.1814 59.2308V60.0001H62.9507V59.2308H62.1814Z" fill="#434F2E"/>
<path d="M57.5661 59.2308V60.0001H62.1814V59.2308H57.5661Z" fill="#51372C"/>
<path d="M52.9507 59.2308L57.5661 60.0001V59.2308H52.9507Z" fill="#44572B"/>
<path d="M36.7968 59.2308V60.0001V64.6155H37.5661V63.8462V59.2308H36.7968Z" fill="#59644A"/>
<path d="M27.5661 59.2308V60.0001H32.1814V59.2308H27.5661Z" fill="#44572B"/>
<path d="M52.9507 54.6154V59.2308H57.5661V54.6154H52.9507Z" fill="#422A1E"/>
<path d="M17.5661 54.6154V63.8462H22.1814V54.6154H17.5661Z" fill="#422A1E"/>
<path d="M52.9507 53.8462V54.6155H57.5661V53.8462H52.9507Z" fill="#434F2E"/>
<path d="M52.1814 54.6155L52.9507 59.2308V54.6155V53.8462H52.1814H47.5661L52.1814 54.6155Z" fill="#44572B"/>
<path d="M68.3353 50.0001V59.2308H72.9507V54.6154V53.8462V50.0001H68.3353Z" fill="#E9A51B"/>
<path d="M57.5661 50.0001V53.8462V54.6154V59.2308H62.1814H62.9507V50.0001H57.5661Z" fill="#4F622E"/>
<path d="M36.7968 50.0001V59.2308H37.5661V50.0001H36.7968Z" fill="#897C24"/>
<path d="M32.9507 50.0001V59.2308H36.7968V50.0001H32.9507Z" fill="#ED941D"/>
<path d="M27.5661 50.0001V59.2308H32.1814V50.0001H27.5661Z" fill="#2B6930"/>
<path d="M87.5661 49.2308V53.8462H88.3353V49.2308H87.5661Z" fill="#684022"/>
<path d="M83.7199 49.2308V53.8462H87.5661V49.2308H83.7199Z" fill="#7D4824"/>
<path d="M82.9507 49.2308V53.8462H83.7199V49.2308H82.9507Z" fill="#5B5B37"/>
<path d="M72.9507 49.2308V50.0001V53.8462H82.9507V49.2308H73.7199H72.9507Z" fill="#35763B"/>
<path d="M67.5661 49.2308V59.2308H68.3353V50.0001H72.9507V49.2308H67.5661Z" fill="#D99C2F"/>
<path d="M57.5661 49.2308V50.0001H62.9507V49.2308H62.1814H57.5661Z" fill="#59644A"/>
<path d="M52.1814 49.2308V53.8462H52.9507L52.1814 49.2308Z" fill="#434F2E"/>
<path d="M47.5661 49.2308V53.8462H52.1814V49.2308H47.5661Z" fill="#422A1E"/>
<path d="M46.7968 49.2308L47.5661 53.8462V49.2308H46.7968Z" fill="#44572B"/>
<path d="M42.9507 49.2308L42.1814 63.8462H57.5661V60.0001L52.9507 59.2308L52.1814 54.6155L47.5661 53.8462L46.7968 49.2308H42.9507Z" fill="#35763B"/>
<path d="M37.5661 49.2308V50.0001V59.2308V63.8462H42.1814L42.9507 49.2308H42.1814H37.5661Z" fill="#2B6930"/>
<path d="M36.7968 49.2308V50.0001H37.5661V49.2308H36.7968Z" fill="#657223"/>
<path d="M32.1814 49.2308V50.0001V59.2308H32.9507V50.0001H36.7968V49.2308H32.9507H32.1814Z" fill="#D99C2F"/>
<path d="M27.5661 49.2308V50.0001H32.1814V49.2308H27.5661Z" fill="#4F622E"/>
<path d="M12.9507 45.3847V54.6154H17.5661V45.3847H12.9507Z" fill="#422A1E"/>
<path d="M62.9507 43.8462L62.1814 49.2308H62.9507V43.8462Z" fill="#E0C29B"/>
<path d="M67.5661 43.8462H62.9507V49.2308V50.0001V59.2308V60.0001V63.8462H67.5661V60.0001V59.2308V49.2308H72.9507V39.2308H67.5661V43.8462Z" fill="#35763B"/>
<path d="M47.5661 39.2308V49.2308H52.1814L52.9507 53.8462H57.5661V50.0001V49.2308V44.6155L56.7968 43.8462H52.9507L52.1814 39.2308H47.5661Z" fill="#35763B"/>
<path d="M46.7968 39.2308V49.2308H47.5661V39.2308H46.7968Z" fill="#434F2E"/>
<path d="M42.9507 39.2308V49.2308H46.7968V39.2308H42.9507Z" fill="#422A1E"/>
<path d="M42.1814 39.2308V49.2308H42.9507V39.2308H42.1814Z" fill="#434F2E"/>
<path d="M36.7968 39.2308V49.2308H37.5661H42.1814V39.2308H37.5661H36.7968Z" fill="#35763B"/>
<path d="M32.9507 39.2308V49.2308H36.7968V39.2308H32.9507Z" fill="#2B6930"/>
<path d="M32.1814 39.2308V49.2308H32.9507V39.2308H32.1814Z" fill="#4F622E"/>
<path d="M27.5661 39.2308V49.2308H32.1814V39.2308H27.5661Z" fill="#ED941D"/>
<path d="M67.5661 38.4616V39.2308H72.9507V38.4616H67.5661Z" fill="#D99C2F"/>
<path d="M42.1814 38.4616V39.2308H42.9507H46.7968H47.5661H52.1814L42.1814 38.4616Z" fill="#E0C29B"/>
<path d="M37.5661 38.4616V39.2308H42.1814V38.4616H37.5661Z" fill="#DCAC82"/>
<path d="M36.7968 38.4616V39.2308H37.5661V38.4616H36.7968Z" fill="#C8B35A"/>
<path d="M88.3353 33.8462V49.2308V53.8462V54.6155V63.8462H92.9507V33.8462H88.3353Z" fill="#422A1E"/>
<path d="M8.99992 37V45H12.9999V37H8.99992Z" fill="#7D4824"/>
<path d="M84.4891 33.077V33.8462H88.3353V33.077H84.4891Z" fill="#51372C"/>
<path d="M37.5661 29.2308V38.4616H42.1814V29.2308H37.5661Z" fill="#FCBD98"/>
<path d="M36.7968 29.2308V38.4616H37.5661V29.2308H36.7968Z" fill="#E1C75F"/>
<path d="M62.9507 28.4616V29.2308H67.5661V28.4616H62.9507Z" fill="#51372C"/>
<path d="M52.1814 28.4616V29.2308L52.9507 28.4616H52.1814Z" fill="#928655"/>
<path d="M47.5661 28.4616V29.2308H52.1814V28.4616H47.5661Z" fill="#51372C"/>
<path d="M46.7968 28.4616V29.2308H47.5661V28.4616H46.7968Z" fill="#BDAD7C"/>
<path d="M42.1814 28.4616V29.2308H42.9507V28.4616H42.1814Z" fill="#DCAC82"/>
<path d="M36.7968 28.4616V29.2308H37.5661H42.1814V28.4616H36.7968Z" fill="#D99C2F"/>
<path d="M67.5661 23.8462V28.4616V29.2308H68.3353L67.5661 23.8462Z" fill="#D99C2F"/>
<path d="M62.9507 23.8462V28.4616H67.5661V23.8462H62.9507Z" fill="#030303"/>
<path d="M62.1814 29.2308H62.9507V28.4616V23.8462L62.1814 29.2308Z" fill="#E0C29B"/>
<path d="M52.1814 23.8462V28.4616H52.9507V23.8462H52.1814Z" fill="#51372C"/>
<path d="M47.5661 23.8462V28.4616H52.1814V23.8462H47.5661Z" fill="#030303"/>
<path d="M46.7968 23.8462V28.4616H47.5661V23.8462H46.7968Z" fill="#A98C62"/>
<path d="M67.5661 23.077L62.9507 23.8462H67.5661V23.077Z" fill="#A98C62"/>
<path d="M52.1814 23.077V23.8462H52.9507L52.1814 23.077Z" fill="#BDAD7C"/>
<path d="M47.5661 23.077V23.8462H52.1814V23.077H47.5661Z" fill="#A98C62"/>
<path d="M47.5661 23.077L46.7968 23.8462H47.5661V23.077Z" fill="#DCAC82"/>
<path d="M84.4891 19.2308V23.077V33.077H88.3353V19.2308H84.4891Z" fill="#422A1E"/>
<path d="M47.5661 19.2308V23.077H52.1814L52.9507 23.8462V28.4616L52.1814 29.2308H47.5661H46.7968H42.9507H42.1814V38.4616L52.1814 39.2308L52.9507 43.8462H56.7968L57.5661 44.6154V49.2308H62.1814L62.9507 43.8462H67.5661V39.2308V38.4616V29.2308H62.9507H62.1814L62.9507 23.8462L67.5661 23.077V19.2308H47.5661Z" fill="#FFCDA9"/>
<path d="M42.9507 19.2308V28.4616V29.2308H46.7968V28.4616V23.8462L47.5661 23.077V19.2308H42.9507Z" fill="#FCBD98"/>
<path d="M42.1814 19.2308V28.4616H42.9507V19.2308H42.1814Z" fill="#E1C75F"/>
<path d="M32.9507 38.4616H36.7968V29.2308V28.4616V19.2308H32.9507V38.4616Z" fill="#ED941D"/>
<path d="M32.1814 19.2308V38.4616V39.2308H32.9507H36.7968V38.4616H32.9507V19.2308H32.1814Z" fill="#D99C2F"/>
<path d="M42.9507 18.4616V19.2308H47.5661H67.5661L42.9507 18.4616Z" fill="#E1C75F"/>
<path d="M42.1814 18.4616V19.2308H42.9507V18.4616H42.1814Z" fill="#D99C2F"/>
<path d="M37.5661 18.4616L36.7968 19.2308V28.4616H42.1814V19.2308V18.4616H37.5661Z" fill="#E9A51B"/>
<path d="M37.5661 13.8462V18.4616H42.1814V13.8462H37.5661Z" fill="#ED941D"/>
<path d="M67.5661 13.077L72.9507 13.8462V13.077H68.3353H67.5661Z" fill="#D99C2F"/>
<path d="M79.8737 10.0001V13.8462V19.2308H84.4891V10.0001H79.8737Z" fill="#422A1E"/>
<path d="M47.5661 13.077H42.9507L42.1814 13.8462V18.4616H42.9507L67.5661 19.2308V23.077V23.8462L68.3353 29.2308H67.5661V38.4616H72.9507V13.8462L67.5661 13.077V9.23083H47.5661V13.077Z" fill="#E9A51B"/>
<path d="M42.9507 9.23083V13.077H47.5661V9.23083H42.9507Z" fill="#ED941D"/>
<path d="M79.8737 9.23083V10.0001H84.4891V9.23083H79.8737Z" fill="#51372C"/>
</svg>
