<svg width="101" height="100" viewBox="0 0 101 100" fill="none" xmlns="http://www.w3.org/2000/svg">
<path d="M18.0494 86.9231V87.6923H22.6648V86.9231H18.0494Z" fill="#4D4B48"/>
<path d="M13.4341 86.9231V87.6923H18.0494V86.9231H13.4341Z" fill="#363534"/>
<path d="M12.6648 86.9231L13.4341 87.6923V86.9231H12.6648Z" fill="#453F3C"/>
<path d="M74.2033 83.0769V86.9231H78.8187V83.0769H74.2033Z" fill="#453F3C"/>
<path d="M48.8187 83.0769V86.9231H53.434V83.0769H48.8187Z" fill="#2D2A2A"/>
<path d="M18.0494 83.0769V86.9231H22.6648V83.0769H18.0494Z" fill="#453F3C"/>
<path d="M13.4341 83.0769V86.9231H18.0494V83.0769H13.4341Z" fill="#2D2A2A"/>
<path d="M12.6648 83.0769V86.9231H13.4341V83.0769H12.6648Z" fill="#363534"/>
<path d="M78.8187 82.3077V83.0769H79.5879V82.3077H78.8187Z" fill="#7E5F42"/>
<path d="M74.2033 82.3077V83.0769H78.8187V82.3077H74.2033Z" fill="#903D2D"/>
<path d="M48.8187 82.3077V83.0769H53.434V82.3077H48.8187Z" fill="#9C9A9A"/>
<path d="M12.6648 82.3077V83.0769H13.4341V82.3077H12.6648Z" fill="#453F3C"/>
<path d="M18.8187 82.3077H22.6648V77.6923H18.8187V82.3077Z" fill="#2D2A2A"/>
<path d="M18.0494 82.3077H13.4341V83.0769H18.0494H22.6648V82.3077H18.8187V77.6923H18.0494V82.3077Z" fill="#363534"/>
<path d="M13.4341 77.6923V82.3077H18.0494V77.6923H13.4341Z" fill="#453F3C"/>
<path d="M12.6648 77.6923V82.3077H13.4341V77.6923H12.6648Z" fill="#4D4B48"/>
<path d="M18.0494 76.9231V77.6923H18.8187H22.6648V76.9231H18.0494Z" fill="#6F6D5D"/>
<path d="M48.8187 73.0769V82.3077H53.434V73.0769H48.8187Z" fill="#F2EFEE"/>
<path d="M43.4341 73.0769V82.3077H48.0494V73.0769H43.4341Z" fill="#A1382E"/>
<path d="M53.4341 72.3077V73.0769L54.2033 72.3077H53.4341Z" fill="#F2EFEE"/>
<path d="M48.8187 72.3077V73.0769H53.434V72.3077H48.8187Z" fill="#E2C3B3"/>
<path d="M48.0494 72.3077V73.0769V82.3077H48.8187V73.0769V72.3077H48.0494Z" fill="#966D47"/>
<path d="M43.4341 72.3077V73.0769H48.0494V72.3077H43.4341Z" fill="#903D2D"/>
<path d="M18.8187 72.3077L22.6648 73.0769V72.3077H18.8187Z" fill="#AAA7A2"/>
<path d="M18.0494 72.3077V76.9231H22.6648V73.0769L18.8187 72.3077H18.0494Z" fill="#9C9A9A"/>
<path d="M78.8187 67.6923V82.3077H79.5879V67.6923H78.8187Z" fill="#966D47"/>
<path d="M74.2033 67.6923V82.3077H78.8187V67.6923H74.2033Z" fill="#BF4034"/>
<path d="M73.4341 67.6923V82.3077H74.2033V67.6923H73.4341Z" fill="#E6B89B"/>
<path d="M58.8187 72.3077H54.2033L53.4341 73.0769V82.3077H73.4341V67.6923H63.4341H58.8187V72.3077Z" fill="#DFDFDF"/>
<path d="M54.2033 67.6923V72.3077H58.8187V67.6923H54.2033Z" fill="#F2EFEE"/>
<path d="M53.4341 67.6923V72.3077H54.2033V67.6923H53.4341Z" fill="#E2DFDF"/>
<path d="M18.0494 67.6923V72.3077H18.8187H22.6648V67.6923H18.8187H18.0494Z" fill="#B7B7B6"/>
<path d="M78.8187 66.9231V67.6923H79.5879V66.9231H78.8187Z" fill="#7E5F42"/>
<path d="M74.2033 66.9231V67.6923H78.8187V66.9231H74.2033Z" fill="#A1382E"/>
<path d="M73.4341 66.9231V67.6923H74.2033V66.9231H73.4341Z" fill="#D79F82"/>
<path d="M63.4341 66.9231V67.6923H73.4341V66.9231H64.2033H63.4341Z" fill="#EED1BE"/>
<path d="M58.8187 66.9231V67.6923H63.434V66.9231H58.8187Z" fill="#C8C6C2"/>
<path d="M53.4341 66.9231V67.6923H54.2033H58.8187V66.9231H53.4341Z" fill="#B7B7B6"/>
<path d="M18.8187 66.9231V67.6923H22.6648V66.9231H18.8187Z" fill="#AAA7A2"/>
<path d="M18.8187 66.9231L18.0494 67.6923H18.8187V66.9231Z" fill="#9C9A9A"/>
<path d="M74.2033 63.0769V66.9231H78.8187V63.0769H74.2033Z" fill="#3E2725"/>
<path d="M53.4341 63.0769V66.9231H58.8187H63.4341V63.0769H54.2033H53.4341Z" fill="#3E2725"/>
<path d="M22.6648 63.0769V66.9231H23.4341V63.0769H22.6648Z" fill="#614939"/>
<path d="M88.0494 62.3077V66.9231H88.8187V62.3077H88.0494Z" fill="#453F3C"/>
<path d="M83.4341 62.3077V66.9231H88.0494V62.3077H83.4341Z" fill="#3E2725"/>
<path d="M78.8187 62.3077V63.0769V66.9231H79.5879V62.3077H78.8187Z" fill="#5D5951"/>
<path d="M74.2033 62.3077V63.0769H78.8187V62.3077H74.2033Z" fill="#502B2C"/>
<path d="M73.4341 62.3077V66.9231H74.2033V63.0769V62.3077H73.4341Z" fill="#966D47"/>
<path d="M64.2033 62.3077V66.9231H73.434V62.3077H64.2033Z" fill="#DAAC37"/>
<path d="M63.4341 62.3077V63.0769V66.9231H64.2033V62.3077H63.4341Z" fill="#AA7A48"/>
<path d="M54.2033 62.3077V63.0769H63.434V62.3077H54.2033Z" fill="#502B2C"/>
<path d="M53.4341 62.3077V63.0769H54.2033V62.3077H53.4341Z" fill="#52362B"/>
<path d="M48.8187 62.3077V72.3077H53.434V67.6923V66.9231V63.0769V62.3077H48.8187Z" fill="#A1382E"/>
<path d="M38.8187 62.3077V66.9231H42.6648V62.3077H38.8187Z" fill="#52362B"/>
<path d="M38.0494 62.3077V66.9231H38.8187V62.3077H38.0494Z" fill="#2F1D1D"/>
<path d="M33.4341 62.3077V66.9231H38.0494V62.3077H33.4341Z" fill="#110E0E"/>
<path d="M32.6648 62.3077V66.9231H33.4341V62.3077H32.6648Z" fill="#3E2725"/>
<path d="M23.4341 62.3077V63.0769V66.9231H32.6648V62.3077H23.4341Z" fill="#52362B"/>
<path d="M23.4341 62.3077L22.6648 63.0769H23.4341V62.3077Z" fill="#5D5951"/>
<path d="M88.0494 56.9231L88.8187 57.6923V56.9231H88.0494Z" fill="#5D5951"/>
<path d="M83.4341 56.9231V57.6923V62.3077H88.0494H88.8187V57.6923L88.0494 56.9231H83.4341Z" fill="#614939"/>
<path d="M53.4341 56.9231V62.3077H54.2033L53.4341 56.9231Z" fill="#AAA7A2"/>
<path d="M48.8187 56.9231V62.3077H53.434V56.9231H48.8187Z" fill="#110E0E"/>
<path d="M34.2033 56.9231V57.6923V62.3077H38.8187V56.9231H34.2033Z" fill="#3E2725"/>
<path d="M78.8187 52.3077V62.3077H79.5879V52.3077H78.8187Z" fill="#9C9A9A"/>
<path d="M53.4341 52.3077V56.9231L54.2033 62.3077H63.4341H64.2033H73.4341H74.2033H78.8187V52.3077H74.2033V56.9231H63.4341V52.3077H53.4341Z" fill="#B7B7B6"/>
<path d="M88.0494 46.9231V56.9231H88.8187V46.9231H88.0494Z" fill="#AAA7A2"/>
<path d="M83.4341 46.9231V56.9231H88.0494V46.9231H83.4341Z" fill="#B7B7B6"/>
<path d="M78.8187 46.9231V52.3077H79.5879V46.9231H78.8187Z" fill="#AAA7A2"/>
<path d="M73.4341 52.3077H63.4341V56.9231H74.2033V52.3077H78.8187V46.9231H73.4341V52.3077Z" fill="#C8C6C2"/>
<path d="M53.4341 46.9231V52.3077H63.4341V46.9231H53.4341Z" fill="#C8C6C2"/>
<path d="M48.8187 46.9231V56.9231H53.434V52.3077V46.9231H48.8187Z" fill="#9C9A9A"/>
<path d="M38.8187 46.9231V56.9231H43.434V46.9231H38.8187Z" fill="#9C9A9A"/>
<path d="M73.4341 41.5385V42.3077L74.2033 41.5385H73.4341Z" fill="#C8C6C2"/>
<path d="M74.2033 36.9231L73.4341 41.5384H74.2033V36.9231Z" fill="#E2C3B3"/>
<path d="M63.4341 42.3077H73.4341V41.5384H64.2033L63.4341 36.9231V42.3077Z" fill="#E2C3B3"/>
<path d="M48.0494 36.9231L48.8187 46.1538V36.9231H48.0494Z" fill="#AAA7A2"/>
<path d="M43.4341 36.9231V46.1538V46.9231H48.8187V46.1538L48.0494 36.9231H43.4341Z" fill="#9C9A9A"/>
<path d="M78.8187 36.1538L74.2033 36.9231H78.8187V36.1538Z" fill="#E2C3B3"/>
<path d="M48.8187 36.1538V36.9231L53.434 36.1538H48.8187Z" fill="#AAA7A2"/>
<path d="M53.434 32.3077V36.1538L48.8187 36.9231V46.1538V46.9231H53.434H63.434V52.3077H73.434V46.9231H78.8187H79.5879H83.434V36.9231H79.5879H78.8187H74.2033V41.5384L73.434 42.3077H63.434V36.9231L58.8187 36.1538V32.3077H53.434Z" fill="#B7B7B6"/>
<path d="M48.8187 32.3077V36.1538H53.434V32.3077H48.8187Z" fill="#9C9A9A"/>
<path d="M53.4341 31.5385V32.3077H58.8187L53.4341 31.5385Z" fill="#E2C3B3"/>
<path d="M48.8187 31.5385V32.3077H53.434V31.5385H48.8187Z" fill="#AAA7A2"/>
<path d="M74.2033 26.1538V26.9231H78.8187V26.1538H74.2033Z" fill="#B89A84"/>
<path d="M73.4341 26.1538L74.2033 26.9231V26.1538H73.4341Z" fill="#E6B89B"/>
<path d="M74.2033 22.3077V26.1538H78.8187V22.3077H74.2033Z" fill="#363534"/>
<path d="M73.4341 22.3077V26.1538H74.2033V22.3077H73.4341Z" fill="#958661"/>
<path d="M74.2033 21.5385V22.3077H78.8187V21.5385H74.2033Z" fill="#4D4B48"/>
<path d="M74.2033 21.5385L73.4341 22.3077H74.2033V21.5385Z" fill="#B89A84"/>
<path d="M48.8187 21.5385V31.5385H53.434V21.5385H48.8187Z" fill="#FBBE99"/>
<path d="M53.4341 16.1538V21.5385V31.5385L58.8187 32.3077V36.1538L63.4341 36.9231L64.2033 41.5385H73.4341L74.2033 36.9231L78.8187 36.1538V26.9231H74.2033L73.4341 26.1538V22.3077L74.2033 21.5385H78.8187V16.1538H58.8187H53.4341Z" fill="#FFCDA9"/>
<path d="M63.4341 26.1538V26.9231L64.2033 26.1538H63.4341Z" fill="#E6B89B"/>
<path d="M63.434 26.9231L58.8187 26.1538H59.5879H63.434V22.3077H64.2033V26.1538H63.434V26.9231Z" fill="#B89A84"/>
<path d="M59.5879 22.3077V26.1538H63.434V22.3077H59.5879Z" fill="#363534"/>
<path d="M58.8187 22.3077V26.1538H59.5879V22.3077H58.8187Z" fill="#453F3C"/>
<path d="M63.4341 21.5385V22.3077H64.2033L63.4341 21.5385Z" fill="#D79F82"/>
<path d="M59.5879 21.5385V22.3077H63.434V21.5385H59.5879Z" fill="#4D4B48"/>
<path d="M59.5879 21.5385L58.8187 22.3077H59.5879V21.5385Z" fill="#5D5951"/>
<path d="M48.8187 16.1538V21.5385H53.434V16.1538H48.8187Z" fill="#E2C3B3"/>
<path d="M58.8187 11.5385V16.1538H78.8187V11.5385H58.8187Z" fill="#EED1BE"/>
<path d="M53.4341 11.5385V16.1538H58.8187V11.5385H53.4341Z" fill="#E2C3B3"/>
</svg>
