<svg width="101" height="100" viewBox="0 0 101 100" fill="none" xmlns="http://www.w3.org/2000/svg">
<path d="M34.6318 93.0769L30.7856 93.8461V97.6922H35.401V93.8461V93.0769H34.6318Z" fill="#B0B0B0"/>
<path d="M30.7856 93.0769V93.8461L34.6318 93.0769H30.7856Z" fill="#C8C8C0"/>
<path d="M30.7856 83.0769V93.0769H34.6318H35.401V83.0769H30.7856Z" fill="#D9DBD8"/>
<path d="M25.401 83.0769V83.8461V93.0769H30.0164V83.0769H25.401Z" fill="#B0B0B0"/>
<path d="M70.7856 78.4615L71.5549 83.0769V78.4615H70.7856Z" fill="#5B5B37"/>
<path d="M66.1703 78.4615V83.0769V88.4615H71.5549V83.0769L70.7856 78.4615H66.1703Z" fill="#51372C"/>
<path d="M40.7856 78.4615V83.0769V88.4615H45.401V83.0769V78.4615H40.7856Z" fill="#422A1E"/>
<path d="M70.7856 73.0769V78.4615H71.5549V73.0769H70.7856Z" fill="#7F5738"/>
<path d="M66.1703 73.0769V78.4615H70.7856V73.0769H66.1703Z" fill="#7D4824"/>
<path d="M40.7856 73.0769V78.4615H45.401V77.6922V73.0769H40.7856Z" fill="#684022"/>
<path d="M65.401 72.3076L46.1703 73.0769H65.401V72.3076Z" fill="#5B5B37"/>
<path d="M45.401 68.4615V73.0769H46.1703L65.401 72.3076V73.0769H66.1703H70.7856V68.4615H45.401Z" fill="#4F622E"/>
<path d="M40.7856 68.4615V73.0769H45.401V68.4615H40.7856Z" fill="#434F2E"/>
<path d="M30.0164 68.4615V83.0769V93.0769H30.7856V83.0769V68.4615H30.0164Z" fill="#C8C8C0"/>
<path d="M25.401 68.4615V83.0769H30.0164V68.4615H25.401Z" fill="#D9DBD8"/>
<path d="M24.6318 68.4615V83.0769H25.401V68.4615H24.6318Z" fill="#C8C8C0"/>
<path d="M20.7856 68.4615V83.0769H24.6318V68.4615H20.7856Z" fill="#B0B0B0"/>
<path d="M70.7856 67.6922V68.4615V73.0769H71.5549V67.6922H70.7856Z" fill="#59644A"/>
<path d="M45.401 67.6922V68.4615H70.7856V67.6922H45.401Z" fill="#434F2E"/>
<path d="M40.7856 67.6922V68.4615H45.401V67.6922H40.7856Z" fill="#393932"/>
<path d="M30.0164 67.6922V68.4615H30.7856V67.6922H30.0164Z" fill="#E0C29B"/>
<path d="M25.401 67.6922V68.4615H30.0164V67.6922H25.401Z" fill="#FFCDA9"/>
<path d="M76.1703 62.3076V66.923H81.5549V62.3076H76.1703Z" fill="#FFCDA9"/>
<path d="M70.7856 63.0769V67.6922H71.5549V63.0769H70.7856Z" fill="#5B5B37"/>
<path d="M45.401 63.0769V67.6922H70.7856V63.0769H45.401Z" fill="#51372C"/>
<path d="M40.7856 63.0769V67.6922H45.401V63.0769H40.7856Z" fill="#422A1E"/>
<path d="M30.0164 63.0769V67.6922H30.7856V63.0769H30.0164Z" fill="#DCAC82"/>
<path d="M25.401 63.0769V67.6922H30.0164V63.0769H25.401Z" fill="#FCBD98"/>
<path d="M76.1703 61.5384V62.3076H81.5549V61.5384H80.7856H76.1703Z" fill="#A98C62"/>
<path d="M30.0164 62.3076V63.0769H30.7856V62.3076H30.0164Z" fill="#928655"/>
<path d="M25.401 62.3076V63.0769H30.0164V62.3076H25.401Z" fill="#A98C62"/>
<path d="M76.1703 57.6922V61.5384H80.7856V57.6922H76.1703Z" fill="#684022"/>
<path d="M25.401 58.4615V62.3076H30.0164V58.4615H25.401Z" fill="#684022"/>
<path d="M56.1703 57.6922V62.3076H60.7856V57.6922H56.1703Z" fill="#4F622E"/>
<path d="M25.401 57.6922V58.4615H30.0164V62.3076H30.7856V58.4615V57.6922H30.0164H25.401Z" fill="#7F5738"/>
<path d="M76.1703 52.3076V57.6922H80.7856V61.5384H81.5549V52.3076H80.7856H76.1703Z" fill="#7D4824"/>
<path d="M56.1703 53.0769V57.6923H60.7856V53.0769H56.1703Z" fill="#434F2E"/>
<path d="M30.7856 53.0769V57.6923H35.401V53.0769H30.7856Z" fill="#7D4824"/>
<path d="M80.7856 51.5384V52.3076H81.5549V51.5384H80.7856Z" fill="#928655"/>
<path d="M76.1703 51.5384V52.3076H80.7856V51.5384H76.1703Z" fill="#A98C62"/>
<path d="M66.1703 57.6922V62.3076H70.7856V52.3076H61.5549V57.6922H66.1703Z" fill="#4F622E"/>
<path d="M46.1703 52.3076L45.401 53.0768V62.3076H50.7856V57.6922H55.401V52.3076H46.1703Z" fill="#4F622E"/>
<path d="M30.7856 52.3076V53.0768H35.401V52.3076H30.7856Z" fill="#928655"/>
<path d="M76.1703 47.6923V51.5384H80.7856H81.5549V47.6923H76.1703Z" fill="#FFCDA9"/>
<path d="M61.5549 48.4615V52.3076H70.7856V48.4615H61.5549Z" fill="#434F2E"/>
<path d="M70.7856 47.6923V48.4615V52.3076V62.3076V63.0769H71.5549V48.4615V47.6923H70.7856Z" fill="#59644A"/>
<path d="M56.1703 52.3076L55.401 48.4615V52.3076V57.6923H50.7856V62.3076L51.5549 58.4615H55.401L56.1703 62.3076V57.6923V53.0769H60.7856V57.6923V62.3076L61.5549 58.4615H65.401L66.1703 62.3076V57.6923H61.5549V52.3076V48.4615H70.7856V47.6923H60.7856V52.3076H56.1703Z" fill="#44572B"/>
<path d="M34.6318 47.6923L35.401 48.4615V47.6923H34.6318Z" fill="#E0C29B"/>
<path d="M30.7856 47.6923V52.3076H35.401V48.4615L34.6318 47.6923H30.7856Z" fill="#FCBD98"/>
<path d="M21.5549 43.0769V47.6923H25.401V43.0769H21.5549Z" fill="#23120F"/>
<path d="M65.401 42.3076V43.0768L66.1703 42.3076H65.401Z" fill="#5B5B37"/>
<path d="M51.5549 42.3076V43.0768H65.401V42.3076H51.5549Z" fill="#59644A"/>
<path d="M50.7856 42.3076L51.5549 43.0768V42.3076H50.7856Z" fill="#5B5B37"/>
<path d="M21.5549 42.3076V43.0768H25.401V42.3076H21.5549Z" fill="#2F1816"/>
<path d="M75.401 37.6923V47.6923H76.1703V37.6923H75.401Z" fill="#FCBD98"/>
<path d="M71.5549 37.6923V47.6923H75.401V37.6923H71.5549Z" fill="#FFCDA9"/>
<path d="M70.7856 37.6923V47.6923H71.5549V37.6923H70.7856Z" fill="#928655"/>
<path d="M50.7856 37.6923V42.3076H51.5549L50.7856 37.6923Z" fill="#E0C29B"/>
<path d="M45.401 37.6923V47.6923L55.401 48.4615L56.1703 52.3076H60.7856V47.6923H70.7856V37.6923H66.1703V42.3076L65.401 43.0769H51.5549L50.7856 42.3076V37.6923H45.401Z" fill="#4F622E"/>
<path d="M40.7856 37.6923V47.6923V52.3076V63.0769H45.401H70.7856V62.3076H66.1703L65.401 58.4615H61.5549L60.7856 62.3076H56.1703L55.401 58.4615H51.5549L50.7856 62.3076H45.401V53.0769L46.1703 52.3076H55.401V48.4615L45.401 47.6923V37.6923H40.7856Z" fill="#434F2E"/>
<path d="M35.401 37.6923V47.6923H40.7856V37.6923H35.401Z" fill="#FCBD98"/>
<path d="M70.7856 36.923V37.6922H71.5549V36.923H70.7856Z" fill="#DCAC82"/>
<path d="M70.7856 36.923L66.1703 37.6922H70.7856V36.923Z" fill="#E0C29B"/>
<path d="M45.401 36.923V37.6922H50.7856L45.401 36.923Z" fill="#E0C29B"/>
<path d="M40.7856 36.923V37.6922H45.401V36.923H40.7856Z" fill="#DCAC82"/>
<path d="M34.6318 36.923V37.6922H35.401V36.923H34.6318Z" fill="#422A1E"/>
<path d="M30.7856 36.923V37.6922H34.6318V36.923H30.7856Z" fill="#2D2421"/>
<path d="M30.7856 36.923L30.0164 37.6922H30.7856V36.923Z" fill="#2F1816"/>
<path d="M30.7856 32.3076V36.923H34.6318H35.401V32.3076H30.7856Z" fill="#2F1816"/>
<path d="M25.401 32.3076V42.3076H30.0164V37.6922L30.7856 36.923V32.3076H30.0164H25.401Z" fill="#23120F"/>
<path d="M40.0164 31.5384V32.3076H40.7856V31.5384H40.0164Z" fill="#422A1E"/>
<path d="M35.401 31.5384V32.3076H40.0164V31.5384H35.401Z" fill="#2D2421"/>
<path d="M70.7856 27.6923V36.923H71.5549V27.6923H70.7856Z" fill="#E0C29B"/>
<path d="M66.1703 26.923V27.6922H70.7856H71.5549V26.923H70.7856H66.1703Z" fill="#707259"/>
<path d="M65.401 26.923L66.1703 27.6922V26.923H65.401Z" fill="#DCAC82"/>
<path d="M70.7856 22.3076V26.923H71.5549V22.3076H70.7856Z" fill="#59644A"/>
<path d="M66.1703 22.3076V26.923H70.7856V22.3076H66.1703Z" fill="#393932"/>
<path d="M65.401 22.3076V26.923H66.1703V22.3076H65.401Z" fill="#BDAD7C"/>
<path d="M40.0164 22.3076V31.5384H40.7856V22.3076H40.0164Z" fill="#2D2421"/>
<path d="M35.401 22.3076V31.5384H40.0164V22.3076H35.401Z" fill="#2F1816"/>
<path d="M30.7856 22.3076V31.5384V32.3076H35.401V31.5384V22.3076H30.7856Z" fill="#23120F"/>
<path d="M70.7856 21.5384V22.3076H71.5549V21.5384H70.7856Z" fill="#A98C62"/>
<path d="M66.1703 21.5384V22.3076H70.7856V21.5384H66.1703Z" fill="#BDAD7C"/>
<path d="M66.1703 21.5384L65.401 22.3076H66.1703V21.5384Z" fill="#E0C29B"/>
<path d="M40.7856 17.6923V22.3076V31.5384V32.3076V36.923H45.401V17.6923H40.7856Z" fill="#FCBD98"/>
<path d="M40.7856 17.6923L40.0164 22.3076H40.7856V17.6923Z" fill="#2F1816"/>
<path d="M65.401 16.923V17.6922L66.1703 16.923H65.401Z" fill="#DCAC82"/>
<path d="M56.1703 16.923V17.6922H65.401V16.923H56.1703Z" fill="#BDAD7C"/>
<path d="M55.401 16.923L56.1703 17.6922V16.923H55.401Z" fill="#DCAC82"/>
<path d="M45.401 16.923V17.6922L46.1703 16.923H45.401Z" fill="#FCBD98"/>
<path d="M40.7856 16.923V17.6922H45.401V16.923H40.7856Z" fill="#A98C62"/>
<path d="M70.7856 12.3076V21.5384H71.5549V12.3076H70.7856Z" fill="#E0C29B"/>
<path d="M65.401 12.3076V16.923H66.1703V12.3076H65.401Z" fill="#928655"/>
<path d="M56.1703 12.3076V16.923H65.401V12.3076H56.1703Z" fill="#4F622E"/>
<path d="M55.401 12.3076V16.923H56.1703V12.3076H55.401Z" fill="#928655"/>
<path d="M50.7856 16.923H46.1703L45.401 17.6922V36.923L50.7856 37.6922L51.5549 42.3076H66.1703V37.6922L70.7856 36.923V27.6922H66.1703L65.401 26.923V22.3076L66.1703 21.5384H70.7856V12.3076H66.1703V16.923L65.401 17.6922H56.1703L55.401 16.923V12.3076H50.7856V16.923Z" fill="#FFCDA9"/>
<path d="M55.401 26.923V27.6922L56.1703 26.923H55.401Z" fill="#BDAD7C"/>
<path d="M51.5549 26.923V27.6922H55.401V26.923H51.5549Z" fill="#707259"/>
<path d="M50.7856 26.923L51.5549 27.6922V26.923H50.7856Z" fill="#83886E"/>
<path d="M55.401 22.3076V26.923H56.1703V22.3076H55.401Z" fill="#A98C62"/>
<path d="M51.5549 22.3076V26.923H55.401V22.3076H51.5549Z" fill="#393932"/>
<path d="M50.7856 22.3076V26.923H51.5549V22.3076H50.7856Z" fill="#59644A"/>
<path d="M55.401 21.5384V22.3076H56.1703L55.401 21.5384Z" fill="#E0C29B"/>
<path d="M55.401 21.5384L50.7856 22.3076H51.5549H55.401V21.5384Z" fill="#BDAD7C"/>
<path d="M46.1703 12.3076V16.923H50.7856V12.3076H46.1703Z" fill="#FCBD98"/>
<path d="M45.401 12.3076V16.923H46.1703V12.3076H45.401Z" fill="#DCAC82"/>
<path d="M35.401 12.3076V21.5384V22.3076H40.0164L40.7856 17.6922V16.923V12.3076H40.0164H35.401Z" fill="#23120F"/>
<path d="M66.1703 11.5384V12.3076H70.7856H71.5549L66.1703 11.5384Z" fill="#BDAD7C"/>
<path d="M65.401 11.5384V12.3076H66.1703V11.5384H65.401Z" fill="#707259"/>
<path d="M56.1703 11.5384V12.3076H65.401V11.5384H56.1703Z" fill="#434F2E"/>
<path d="M55.401 11.5384V12.3076H56.1703V11.5384H55.401Z" fill="#5B5B37"/>
<path d="M46.1703 11.5384V12.3076H50.7856H55.401V11.5384H46.1703Z" fill="#A98C62"/>
<path d="M45.401 11.5384V12.3076H46.1703V11.5384H45.401Z" fill="#707259"/>
<path d="M40.7856 11.5384V12.3076V16.923H45.401V12.3076V11.5384H40.7856Z" fill="#2F1816"/>
<path d="M65.401 7.69226V11.5384H66.1703V7.69226H65.401Z" fill="#51372C"/>
<path d="M40.7856 7.69226V11.5384H45.401V7.69226H40.7856Z" fill="#23120F"/>
<path d="M65.401 6.923V7.69223H66.1703L65.401 6.923Z" fill="#5B5B37"/>
<path d="M61.5549 6.923V7.69223H65.401V6.923H61.5549Z" fill="#422A1E"/>
<path d="M60.7856 6.923L61.5549 7.69223V6.923H60.7856Z" fill="#2D2421"/>
<path d="M40.7856 6.923V7.69223H45.401V6.923H40.7856Z" fill="#2D2421"/>
<path d="M50.7856 6.923H46.1703H45.401V7.69223V11.5384H46.1703H55.401H56.1703H65.401V7.69223H61.5549L60.7856 6.923V2.30762H50.7856V6.923Z" fill="#2F1816"/>
<path d="M46.1703 2.30762V6.923H50.7856V2.30762H46.1703Z" fill="#23120F"/>
</svg>
