<svg width="101" height="100" viewBox="0 0 101 100" fill="none" xmlns="http://www.w3.org/2000/svg">
<path d="M61.6978 82.3077L62.467 86.9231V82.3077H61.6978Z" fill="#903D2D"/>
<path d="M57.0824 82.3077V86.9231V87.6923V92.3077H61.6978H62.467V91.5385V87.6923V86.9231V82.3077H57.0824Z" fill="#7D4926"/>
<path d="M56.3132 82.3077V86.9231H57.0824V82.3077H56.3132Z" fill="#B03F32"/>
<path d="M36.3132 82.3077V86.9231H37.0824V82.3077H36.3132Z" fill="#BF4034"/>
<path d="M31.6978 82.3077V86.9231V87.6923V91.5385H36.3132V87.6923V86.9231V82.3077H31.6978Z" fill="#70411F"/>
<path d="M21.6978 82.3077V86.9231H31.6978V82.3077H21.6978Z" fill="#D4483B"/>
<path d="M16.3132 82.3077V86.9231H20.9286H21.6978V82.3077H16.3132Z" fill="#BF4034"/>
<path d="M57.0824 81.5385V82.3077H61.6978H62.467V81.5385H61.6978H57.0824Z" fill="#C0815F"/>
<path d="M56.3132 81.5385V82.3077H57.0824V81.5385H56.3132Z" fill="#D0753B"/>
<path d="M36.3132 81.5385V82.3077H37.0824L41.6978 81.5385H37.0824H36.3132Z" fill="#E78B5B"/>
<path d="M31.6978 81.5385V82.3077H36.3132V81.5385H31.6978Z" fill="#966D47"/>
<path d="M16.3132 81.5385V82.3077H21.6978H31.6978V81.5385H16.3132Z" fill="#D0753B"/>
<path d="M42.467 77.6923L41.6978 81.5385L37.0824 82.3077V86.9231H56.3132V82.3077V81.5385V77.6923H42.467Z" fill="#D4483B"/>
<path d="M37.0824 77.6923V81.5385H41.6978V77.6923H37.0824Z" fill="#FFCDA9"/>
<path d="M36.3132 77.6923V81.5385H37.0824V77.6923H36.3132Z" fill="#FBBE99"/>
<path d="M56.3132 76.9231V77.6923V81.5385H57.0824V76.9231H56.3132Z" fill="#E78B5B"/>
<path d="M41.6978 76.9231V77.6923V81.5385L42.467 77.6923H56.3132V76.9231H41.6978Z" fill="#D0753B"/>
<path d="M37.0824 76.9231V77.6923H41.6978V76.9231H37.0824Z" fill="#E6B89B"/>
<path d="M36.3132 76.9231V77.6923H37.0824V76.9231H36.3132Z" fill="#D79F82"/>
<path d="M16.3132 76.9231V81.5385H31.6978H36.3132V77.6923V76.9231H16.3132Z" fill="#C3982C"/>
<path d="M61.6978 72.3077V81.5385H62.467V72.3077H61.6978Z" fill="#D79F82"/>
<path d="M57.0824 72.3077V76.9231V81.5385H61.6978V72.3077H57.0824Z" fill="#FFCDA9"/>
<path d="M61.6978 71.5385V72.3077H62.467V71.5385H61.6978Z" fill="#E78B5B"/>
<path d="M57.0824 71.5385V72.3077H61.6978V71.5385H57.0824Z" fill="#FBBE99"/>
<path d="M57.0824 71.5385L56.3132 76.9231H57.0824V72.3077V71.5385Z" fill="#FAAD5B"/>
<path d="M61.6978 66.9231V71.5385H62.467V66.9231H61.6978Z" fill="#D0753B"/>
<path d="M41.6978 66.9231V76.9231H56.3132L57.0824 71.5385H61.6978V66.9231H42.467H41.6978Z" fill="#DAAC37"/>
<path d="M77.8517 56.9231V61.5385H82.4671V56.9231H77.8517Z" fill="#FFCDA9"/>
<path d="M77.0824 56.9231V61.5385H77.8517V56.9231H77.0824Z" fill="#FBBE99"/>
<path d="M72.467 56.9231V61.5385H77.0824V56.9231H72.467Z" fill="#DAAC37"/>
<path d="M51.6978 61.5385H61.6978V56.9231H51.6978V61.5385Z" fill="#FBBE99"/>
<path d="M41.6978 56.9231V66.9231H42.467V61.5385H46.3132V56.9231H41.6978Z" fill="#FBBE99"/>
<path d="M36.3132 56.9231V76.9231H37.0824H41.6978V66.9231V56.9231H37.0824H36.3132Z" fill="#C3982C"/>
<path d="M16.3132 56.9231V76.9231H36.3132V56.9231H16.3132Z" fill="#DAAC37"/>
<path d="M31.6978 61.5385H21.6978V71.5385H31.6978V61.5385Z" fill="#C3982C"/>
<path d="M11.6978 56.9231V76.9231H16.3132V56.9231H11.6978Z" fill="#C3982C"/>
<path d="M37.0824 56.1538V56.9231H41.6978L37.0824 56.1538Z" fill="#FBBE99"/>
<path d="M36.3132 56.1538V56.9231H37.0824V56.1538H36.3132Z" fill="#E6B89B"/>
<path d="M71.6978 51.5385V61.5385H72.467V56.9231V56.1538V51.5385H71.6978Z" fill="#FBBE99"/>
<path d="M67.0824 51.5385V61.5385H71.6978V51.5385H67.0824Z" fill="#FFCDA9"/>
<path d="M62.467 51.5385V66.9231V71.5385V72.3077V81.5385V82.3077V86.9231H67.0824V61.5385V51.5385H66.3132H62.467Z" fill="#D4483B"/>
<path d="M62.467 51.5385L61.6978 56.9231V61.5385V66.9231H62.467V51.5385Z" fill="#D79F82"/>
<path d="M36.3132 51.5385V56.1538H37.0824L36.3132 51.5385Z" fill="#FBBE99"/>
<path d="M16.3132 51.5385V56.9231H36.3132V56.1538V51.5385H26.3132H16.3132Z" fill="#C3982C"/>
<path d="M66.3132 50.7692V51.5385H67.0824V50.7692H66.3132Z" fill="#E6B89B"/>
<path d="M66.3132 50.7692L62.467 51.5385H66.3132V50.7692Z" fill="#FBBE99"/>
<path d="M41.6978 50.7692L42.467 51.5385V50.7692H41.6978Z" fill="#E78B5B"/>
<path d="M66.3132 46.9231V50.7692H67.0824V46.9231H66.3132Z" fill="#FBBE99"/>
<path d="M56.3132 46.9231V51.5384L57.0824 46.9231H56.3132Z" fill="#E78B5B"/>
<path d="M42.467 46.9231V50.7692V51.5384H56.3132V46.9231H42.467Z" fill="#D4483B"/>
<path d="M41.6978 46.9231V50.7692H42.467V46.9231H41.6978Z" fill="#D0753B"/>
<path d="M36.3132 46.9231V51.5384L37.0824 56.1538L41.6978 56.9231H46.3132V61.5385H42.467V66.9231H61.6978V61.5385H51.6978V56.9231H61.6978L62.467 51.5384L66.3132 50.7692V46.9231H62.467H57.0824L56.3132 51.5384H42.467L41.6978 50.7692V46.9231H36.3132Z" fill="#FFCDA9"/>
<path d="M26.3132 46.9231V50.7692V51.5384H36.3132V46.9231H26.3132Z" fill="#FBBE99"/>
<path d="M62.467 46.1538V46.9231H66.3132H67.0824V46.1538H62.467Z" fill="#E78B5B"/>
<path d="M57.0824 46.1538V46.9231H62.467V46.1538H61.6978H57.0824Z" fill="#C0815F"/>
<path d="M56.3132 46.1538V46.9231H57.0824V46.1538H56.3132Z" fill="#966D47"/>
<path d="M42.467 46.1538V46.9231H56.3132V46.1538H42.467Z" fill="#A1382E"/>
<path d="M41.6978 46.1538V46.9231H42.467V46.1538H41.6978Z" fill="#B03F32"/>
<path d="M36.3132 46.1538V46.9231H41.6978V46.1538H37.0824H36.3132Z" fill="#AA7A48"/>
<path d="M26.3132 46.1538V46.9231H36.3132V46.1538H26.3132Z" fill="#C0815F"/>
<path d="M62.467 41.5385V46.1538H67.0824V41.5385H62.467Z" fill="#D4483B"/>
<path d="M61.6978 41.5385V46.1538H62.467V41.5385H61.6978Z" fill="#903D2D"/>
<path d="M37.0824 41.5385V46.1538H41.6978V41.5385H37.0824Z" fill="#70411F"/>
<path d="M26.3132 41.5385V46.1538H36.3132V41.5385H31.6978H26.3132Z" fill="#BF4034"/>
<path d="M56.3132 40.7692V41.5385L57.0824 40.7692H56.3132Z" fill="#AA7A48"/>
<path d="M47.0824 40.7692V41.5385H56.3132V40.7692H47.0824Z" fill="#D79F82"/>
<path d="M46.3132 40.7692L47.0824 41.5385V40.7692H46.3132Z" fill="#AA7A48"/>
<path d="M31.6978 40.7692V41.5385H36.3132V40.7692H31.6978Z" fill="#903D2D"/>
<path d="M31.6978 40.7692L26.3132 41.5385H31.6978V40.7692Z" fill="#966D47"/>
<path d="M61.6978 36.9231V41.5384H62.467V40.7692V36.9231H61.6978Z" fill="#7E5F42"/>
<path d="M56.3132 36.9231V40.7692H57.0824V36.9231H56.3132Z" fill="#D79F82"/>
<path d="M47.0824 36.9231V40.7692H56.3132V36.9231H47.0824Z" fill="#FFCDA9"/>
<path d="M46.3132 36.9231V40.7692H47.0824V36.9231H46.3132Z" fill="#D79F82"/>
<path d="M36.3132 36.9231V40.7692V41.5384V46.1538H37.0824V41.5384H41.6978V46.1538H42.467H56.3132H57.0824H61.6978V41.5384V36.9231H57.0824V40.7692L56.3132 41.5384H47.0824L46.3132 40.7692V36.9231H37.0824H36.3132Z" fill="#7D4926"/>
<path d="M61.6978 36.1538V36.9231H62.467V36.1538H61.6978Z" fill="#958661"/>
<path d="M57.0824 36.1538V36.9231H61.6978V36.1538H57.0824Z" fill="#AA7A48"/>
<path d="M56.3132 36.1538V36.9231H57.0824V36.1538H56.3132Z" fill="#C0815F"/>
<path d="M47.0824 36.1538V36.9231H56.3132V36.1538H47.0824Z" fill="#D79F82"/>
<path d="M37.0824 36.1538V36.9231H46.3132V36.1538H41.6978H37.0824Z" fill="#AA7A48"/>
<path d="M36.3132 36.1538V36.9231H37.0824V36.1538H36.3132Z" fill="#966D47"/>
<path d="M61.6978 31.5385V36.1538H62.467V31.5385H61.6978Z" fill="#E6B89B"/>
<path d="M57.0824 31.5385V36.1538H61.6978V31.5385H57.0824Z" fill="#FFCDA9"/>
<path d="M56.3132 31.5385V36.1538H57.0824V31.5385H56.3132Z" fill="#AA7A48"/>
<path d="M47.0824 31.5385V36.1538H56.3132V31.5385H47.0824Z" fill="#7D4926"/>
<path d="M41.6978 31.5385V36.1538H46.3132V31.5385H41.6978Z" fill="#FFCDA9"/>
<path d="M61.6978 30.7692V31.5385H62.467V30.7692H61.6978Z" fill="#898C7A"/>
<path d="M57.0824 30.7692V31.5385H61.6978V30.7692H57.0824Z" fill="#B89A84"/>
<path d="M56.3132 30.7692V31.5385H57.0824V30.7692H56.3132Z" fill="#C0815F"/>
<path d="M47.0824 30.7692V31.5385H56.3132V30.7692H47.0824Z" fill="#AA7A48"/>
<path d="M46.3132 30.7692V31.5385V36.1538V36.9231H47.0824V36.1538V31.5385V30.7692H46.3132Z" fill="#C0815F"/>
<path d="M41.6978 30.7692V31.5385H46.3132V30.7692H42.467H41.6978Z" fill="#B89A84"/>
<path d="M83.2363 26.9231L82.467 86.9231V87.6923V91.5385H87.0824V86.9231V26.9231H83.2363Z" fill="#52362B"/>
<path d="M82.467 26.9231V56.1538V56.9231V61.5385V86.9231L83.2363 26.9231H82.467Z" fill="#614939"/>
<path d="M61.6978 26.9231V30.7692H62.467V26.9231H61.6978Z" fill="#4D4B48"/>
<path d="M57.0824 26.9231V30.7692H61.6978V26.9231H57.0824Z" fill="#363534"/>
<path d="M42.467 26.9231V30.7692H46.3132V26.9231H42.467Z" fill="#363534"/>
<path d="M41.6978 26.9231V30.7692H42.467V26.9231H41.6978Z" fill="#4D4B48"/>
<path d="M83.2363 26.1538V26.9231H87.0824V26.1538H83.2363Z" fill="#614939"/>
<path d="M82.467 26.1538V26.9231H83.2363V26.1538H82.467Z" fill="#5D5951"/>
<path d="M61.6978 26.1538V26.9231H62.467V26.1538H61.6978Z" fill="#5D5951"/>
<path d="M57.0824 26.1538V26.9231H61.6978V26.1538H57.0824Z" fill="#4D4B48"/>
<path d="M57.0824 26.1538L56.3132 30.7692H57.0824V26.9231V26.1538Z" fill="#B89A84"/>
<path d="M46.3132 26.1538V26.9231V30.7692H47.0824L46.3132 26.1538Z" fill="#B89A84"/>
<path d="M42.467 26.1538V26.9231H46.3132V26.1538H42.467Z" fill="#4D4B48"/>
<path d="M41.6978 26.1538V26.9231H42.467V26.1538H41.6978Z" fill="#6F6D5D"/>
<path d="M61.6978 21.5385V26.1538H62.467V21.5385H61.6978Z" fill="#E6B89B"/>
<path d="M41.6978 21.5385V26.1538H42.467H46.3132L47.0824 30.7692H56.3132L57.0824 26.1538H61.6978V21.5385H41.6978Z" fill="#FFCDA9"/>
<path d="M37.0824 21.5385V36.1538H41.6978V31.5385V30.7692V26.9231V26.1538V21.5385H37.0824Z" fill="#FBBE99"/>
<path d="M77.0824 20.7692V26.1538H77.8517V21.5385L82.467 20.7692H77.0824Z" fill="#B7B7B6"/>
<path d="M61.6978 20.7692V21.5385H62.467V20.7692H61.6978Z" fill="#B89A84"/>
<path d="M37.0824 20.7692V21.5385H41.6978H61.6978V20.7692H37.0824Z" fill="#E6B89B"/>
<path d="M36.3132 20.7692V36.1538H37.0824V21.5385V20.7692H36.3132Z" fill="#D79F82"/>
<path d="M31.6978 16.1538V40.7692H36.3132V36.9231V36.1538V20.7692V16.1538H31.6978Z" fill="#70411F"/>
<path d="M83.2363 10.7692L82.4671 20.7692L77.8517 21.5385V26.1538H82.4671H83.2363H87.0825V10.7692H83.2363Z" fill="#C8C6C2"/>
<path d="M41.6978 16.1538V10.7692H37.0824V16.1538H41.6978Z" fill="#70411F"/>
<path d="M36.3132 10.7692V15.3846V16.1538V20.7692H37.0824H61.6978H62.467H67.0824V10.7692H41.6978V16.1538H37.0824V10.7692H36.3132Z" fill="#7D4926"/>
</svg>
