<svg width="101" height="100" viewBox="0 0 101 100" fill="none" xmlns="http://www.w3.org/2000/svg">
<path d="M52.7601 89.2308H57.6682V84.3227H53.4612H52.7601V89.2308Z" fill="#684022"/>
<path d="M30.3232 84.3227V89.2308H34.5301V84.3227H30.3232Z" fill="#422A1E"/>
<path d="M52.7601 80.1157V84.3227H53.4612L52.7601 80.1157Z" fill="#7F5738"/>
<path d="M25.4152 80.1157V84.3227H29.6221V80.1157H25.4152Z" fill="#79846D"/>
<path d="M21.2081 80.1157V84.3227H24.7139V80.1157H21.2081Z" fill="#A29404"/>
<path d="M34.5303 79.4146V80.1157H43.6453V79.4146H34.5303Z" fill="#5B5B37"/>
<path d="M52.7601 75.2076V80.1157L53.4612 84.3227H57.6682V75.2076H52.7601Z" fill="#7D4824"/>
<path d="M30.3232 75.2076V80.1157V84.3227H34.5301V80.1157V79.4146V75.2076H30.3232Z" fill="#684022"/>
<path d="M29.6219 75.2076V79.4146V80.1157H30.3231V75.2076H29.6219Z" fill="#7D4824"/>
<path d="M52.7601 71.0007V75.2076H57.6682V71.0007H53.4612H52.7601Z" fill="#4F622E"/>
<path d="M43.645 71.0007V79.4146V80.1157H52.76V75.2076V71.0007H43.645Z" fill="#657223"/>
<path d="M33.829 71.0007L34.5302 75.2076V79.4146H43.6452V71.0007H33.829Z" fill="#4F622E"/>
<path d="M30.3232 71.0007V75.2076H34.5301L33.8289 71.0007H30.3232Z" fill="#44572B"/>
<path d="M29.6219 71.0007V75.2076H30.3231V71.0007H29.6219Z" fill="#657223"/>
<path d="M25.4152 79.4146H29.6221V75.2076V71.0007H25.4152V79.4146Z" fill="#A29404"/>
<path d="M24.7139 71.0007V79.4146V80.1157V84.3227H25.4151V80.1157H29.622V79.4146H25.4151V71.0007H24.7139Z" fill="#897C24"/>
<path d="M61.8751 70.2995V71.0007L62.5763 70.2995H61.8751Z" fill="#928655"/>
<path d="M57.6684 70.2995V71.0007H58.3696H61.8753V70.2995H57.6684Z" fill="#D99C2F"/>
<path d="M53.4613 70.2995V71.0007H57.6682V70.2995H53.4613Z" fill="#897C24"/>
<path d="M43.645 70.2995V71.0007H52.76H53.4612V70.2995H43.645Z" fill="#A29404"/>
<path d="M30.3232 70.2995V71.0007H33.8289H43.6451V70.2995H34.5301H30.3232Z" fill="#897C24"/>
<path d="M29.6219 70.2995V71.0007H30.3231V70.2995H29.6219Z" fill="#A29404"/>
<path d="M25.4152 70.2995V71.0007H29.6221V70.2995H25.4152Z" fill="#BDAB02"/>
<path d="M24.7139 70.2995V71.0007H25.4151V70.2995H24.7139Z" fill="#928655"/>
<path d="M34.5303 66.0926V70.2995H43.6453H53.4615H57.6685V66.0926H34.5303Z" fill="#BDAB02"/>
<path d="M30.3232 66.0926V70.2995H34.5301V66.0926H30.3232Z" fill="#A29404"/>
<path d="M29.6219 66.0926V70.2995H30.3231V66.0926H29.6219Z" fill="#BDAB02"/>
<path d="M24.7139 66.0926V70.2995H25.4151V66.0926H24.7139Z" fill="#A98C62"/>
<path d="M34.5303 65.3914V66.0926H57.6685V65.3914H34.5303Z" fill="#E1C75F"/>
<path d="M30.3232 65.3914V66.0926H34.5301V65.3914H30.3232Z" fill="#C8B35A"/>
<path d="M29.6219 65.3914V66.0926H30.3231V65.3914H29.6219Z" fill="#D99C2F"/>
<path d="M21.2081 65.3914V66.0926H24.7139H25.415L21.2081 65.3914Z" fill="#D99C2F"/>
<path d="M20.5068 65.3914V66.0926H21.208V65.3914H20.5068Z" fill="#897C24"/>
<path d="M15.5988 65.3914V66.0926V70.2995H16.3H20.5069V66.0926V65.3914H15.5988Z" fill="#684022"/>
<path d="M34.5303 61.8856V65.3914H57.6685V61.8856H34.5303Z" fill="#FFCDA9"/>
<path d="M30.3232 61.8856V65.3914H34.5301V61.8856H30.3232Z" fill="#FCBD98"/>
<path d="M29.6219 61.8856V65.3914H30.3231V61.8856H29.6219Z" fill="#E1C75F"/>
<path d="M20.5068 61.8856V65.3914H21.208V61.8856H20.5068Z" fill="#D99C2F"/>
<path d="M15.5988 61.8856V65.3914H20.5069V61.8856H15.5988Z" fill="#7D4824"/>
<path d="M80.1051 61.1845L75.8982 61.8856V84.3227V89.2308H80.8063V84.3227V61.1845H80.1051Z" fill="#BDAD7C"/>
<path d="M75.8982 61.1845V61.8856L80.1051 61.1845H75.8982Z" fill="#DCAC82"/>
<path d="M30.3232 61.1845V61.8856H34.5301H57.6683V61.1845H52.7602H43.6451H33.8289H30.3232Z" fill="#BDAD7C"/>
<path d="M29.6219 61.1845V61.8856H30.3231V61.1845H29.6219Z" fill="#D99C2F"/>
<path d="M24.7139 61.1845V61.8856L25.4151 61.1845H24.7139Z" fill="#D99C2F"/>
<path d="M21.2081 61.1845V61.8856H24.7139V61.1845H21.2081Z" fill="#A29404"/>
<path d="M20.5068 61.1845V61.8856H21.208V61.1845H20.5068Z" fill="#897C24"/>
<path d="M75.8982 56.9775V61.1845H80.1051H80.8063V56.9775H75.8982Z" fill="#FFCDA9"/>
<path d="M70.9902 56.9775V61.1845H75.1972V56.9775H70.9902Z" fill="#7D4824"/>
<path d="M61.8751 56.9775V70.2995H62.5763V56.9775H61.8751Z" fill="#A98C62"/>
<path d="M75.8982 56.2764V56.9775H80.8063V56.2764H75.8982Z" fill="#E0C29B"/>
<path d="M66.7835 56.2764V56.9775V61.1845H67.4847H70.9905V56.9775H75.1974V61.1845H75.8986V56.9775V56.2764H75.1974H66.7835Z" fill="#7F5738"/>
<path d="M61.8751 56.2764V56.9775H62.5763V56.2764H61.8751Z" fill="#928655"/>
<path d="M58.3696 52.7706L57.6684 65.3914V66.0926V70.2995H61.8753V56.9775V56.2764V52.7706H58.3696Z" fill="#E9A51B"/>
<path d="M21.2081 52.7706V61.1845H24.7139V52.7706H21.2081Z" fill="#44572B"/>
<path d="M20.5068 52.7706V61.1845H21.208V52.7706H20.5068Z" fill="#59644A"/>
<path d="M62.5764 52.0695V56.2764H66.7834V52.0695H62.5764Z" fill="#4F622E"/>
<path d="M61.8751 52.0695V52.7706V56.2764H62.5763V52.0695H61.8751Z" fill="#897C24"/>
<path d="M57.6684 52.0695V61.1845V61.8857V65.3914L58.3696 52.7706H61.8753V52.0695H57.6684Z" fill="#D99C2F"/>
<path d="M43.645 52.0695V61.1845H52.76V52.0695H43.645Z" fill="#657223"/>
<path d="M30.3232 52.0695V61.1845H33.8289V52.0695H30.3232Z" fill="#44572B"/>
<path d="M29.6219 52.0695V61.1845H30.3231V52.0695H29.6219Z" fill="#897C24"/>
<path d="M25.415 52.0695V61.1845L24.7139 61.8857H21.2081V65.3914L25.415 66.0926V70.2995H29.622V66.0926V65.3914V61.8857V61.1845V52.0695H25.415Z" fill="#ED941D"/>
<path d="M20.5068 52.0695V52.7706H21.208H24.7138V52.0695H21.208H20.5068Z" fill="#5B5B37"/>
<path d="M75.8982 47.1613V56.2764H80.8063V47.1613H75.8982Z" fill="#BDAD7C"/>
<path d="M57.6682 47.1613L53.4612 47.8625L52.7601 52.0694V61.1845H57.6682V52.0694H61.8751V47.1613H58.3693H57.6682Z" fill="#4F622E"/>
<path d="M53.4613 47.1613V47.8625L57.6682 47.1613H53.4613Z" fill="#59644A"/>
<path d="M52.7601 47.1613V52.0694L53.4612 47.8625V47.1613H52.7601Z" fill="#657223"/>
<path d="M43.645 47.1613V47.8625V52.0694H52.76V47.1613H43.645Z" fill="#BDAB02"/>
<path d="M42.9441 47.1613V47.8625H43.6452V47.1613H42.9441Z" fill="#657223"/>
<path d="M39.4382 47.1613L42.944 47.8625V47.1613H39.4382Z" fill="#59644A"/>
<path d="M25.4152 47.1613V52.0694H29.6221V47.1613H25.4152Z" fill="#44572B"/>
<path d="M75.8982 42.9544V47.1613H80.8063V42.9544H75.8982Z" fill="#E0C29B"/>
<path d="M61.8751 42.9544V47.1613V52.0694H62.5763V42.9544H61.8751Z" fill="#707259"/>
<path d="M58.3693 42.9544V47.1613H61.875V42.9544H58.3693Z" fill="#7D4824"/>
<path d="M57.6684 42.9544V47.1613H58.3696V42.9544H57.6684Z" fill="#7F5738"/>
<path d="M38.737 42.9544L39.4382 47.1613V42.9544H38.737Z" fill="#928655"/>
<path d="M34.53 47.1613H30.3231H29.6219V52.0694H30.3231H33.8289V61.1845H43.6451V52.0694V47.8625H42.9439L39.4381 47.1613L38.737 42.9544H34.53V47.1613Z" fill="#4F622E"/>
<path d="M30.3232 42.9544V47.1613H34.5301V42.9544H33.8289H30.3232Z" fill="#7D4824"/>
<path d="M25.4152 42.9544V47.1613H29.6221H30.3233V42.9544H29.6221H25.4152Z" fill="#684022"/>
<path d="M21.2081 42.9544V52.0694H24.7139V42.9544H21.2081Z" fill="#ED941D"/>
<path d="M20.5068 42.9544V52.0694H21.208V42.9544H20.5068Z" fill="#D99C2F"/>
<path d="M38.737 42.2532V42.9544H39.4382L38.737 42.2532Z" fill="#FCBD98"/>
<path d="M34.5303 42.2532V42.9544H38.7372V42.2532H34.5303Z" fill="#E0C29B"/>
<path d="M30.3232 42.2532V42.9544H33.8289L30.3232 42.2532Z" fill="#DCAC82"/>
<path d="M29.6219 42.2532V42.9544H30.3231V42.2532H29.6219Z" fill="#C8B35A"/>
<path d="M20.5068 42.2532V42.9544H21.208L20.5068 42.2532Z" fill="#7F5738"/>
<path d="M75.8982 38.0463V42.9544H80.8063V38.0463H75.8982Z" fill="#BDAD7C"/>
<path d="M62.5764 38.0463V42.9544H66.7834V38.0463H62.5764Z" fill="#7D4824"/>
<path d="M61.8751 38.0463V42.9544H62.5763V38.0463H61.8751Z" fill="#897C24"/>
<path d="M24.7139 38.0463V42.9544V52.0695V52.7706V61.1845H25.4151V52.0695V47.1614V42.9544V38.0463H24.7139Z" fill="#897C24"/>
<path d="M20.5068 38.0463V42.2533L21.208 42.9544H24.7138V38.0463H21.208H20.5068Z" fill="#684022"/>
<path d="M75.8982 33.8394V38.0463H80.8063V33.8394H75.8982Z" fill="#E0C29B"/>
<path d="M30.3232 33.8394V42.2532L33.8289 42.9544H34.5301V42.2532V33.8394H33.8289H30.3232Z" fill="#FCBD98"/>
<path d="M30.3231 33.8394L29.6219 42.2532H30.3231V33.8394Z" fill="#E1C75F"/>
<path d="M53.4613 33.1382V33.8393H57.6682V33.1382H53.4613Z" fill="#707259"/>
<path d="M52.7601 33.1382L53.4612 33.8393V33.1382H52.7601Z" fill="#83886E"/>
<path d="M33.829 33.1382V33.8393H34.5302H39.4383V33.1382H38.7371H33.829Z" fill="#E1C75F"/>
<path d="M33.8289 33.1382L30.3232 33.8393H33.8289V33.1382Z" fill="#D99C2F"/>
<path d="M53.4613 28.9312V33.1382H57.6682V28.9312H53.4613Z" fill="#393932"/>
<path d="M52.7601 28.9312V33.1382H53.4612V28.9312H52.7601Z" fill="#59644A"/>
<path d="M39.4382 28.9312V33.1382V33.8393H43.6452V28.9312H39.4382Z" fill="#FCBD98"/>
<path d="M39.4382 28.9312L38.737 33.1382H39.4382V28.9312Z" fill="#D99C2F"/>
<path d="M80.8063 28.2301L75.8982 28.9312V33.8393H80.8063V28.2301Z" fill="#BDAD7C"/>
<path d="M57.6682 28.2301L52.7601 28.9312H53.4612H57.6682V28.2301Z" fill="#BDAD7C"/>
<path d="M43.645 28.2301V28.9312L48.5531 28.2301H43.645Z" fill="#E1C75F"/>
<path d="M43.6452 28.2301L39.4382 28.9312H43.6452V28.2301Z" fill="#D99C2F"/>
<path d="M75.8982 24.7243V28.9312L80.8063 28.2301V24.7243H75.8982Z" fill="#E0C29B"/>
<path d="M20.5068 24.7243V38.0463H24.7138H25.4149V24.7243H20.5068Z" fill="#ED941D"/>
<path d="M75.8982 24.0232V24.7243H80.8063V24.0232H80.1051H75.8982Z" fill="#BDAD7C"/>
<path d="M80.8066 19.8162V24.0231H85.0135V19.8162H80.8066Z" fill="#E0C29B"/>
<path d="M80.1053 19.8162V24.0231H80.8064V19.8162H80.1053Z" fill="#83886E"/>
<path d="M75.8982 19.8162V24.0231H80.1051V19.8162H75.8982Z" fill="#79846D"/>
<path d="M71.6915 19.8162V24.0231H75.8984V19.8162H75.1973H71.6915Z" fill="#E0C29B"/>
<path d="M57.6684 19.8162V28.2301V28.9312V33.1382V33.8393V42.9544H58.3696L57.6684 19.8162Z" fill="#D99C2F"/>
<path d="M53.4615 19.8162L52.7604 24.0231L48.5534 24.7243V28.2301L43.6453 28.9312V33.8393H39.4384H34.5303V42.2532H38.7372L39.4384 42.9544V47.1613H42.9442H43.6453H52.7604H53.4615H57.6685V42.9544V33.8393H53.4615L52.7604 33.1382V28.9312L57.6685 28.2301V19.8162H53.4615Z" fill="#FFCDA9"/>
<path d="M52.7601 19.8162V24.0231L53.4612 19.8162H52.7601Z" fill="#FCBD98"/>
<path d="M80.1053 19.1151V19.8162H80.8064V19.1151H80.1053Z" fill="#79846D"/>
<path d="M75.8982 19.1151V19.8162H80.1051V19.1151H75.8982Z" fill="#737E67"/>
<path d="M57.6682 19.1151L52.7601 19.8162H53.4612H57.6682V19.1151Z" fill="#E1C75F"/>
<path d="M25.4152 15.6093V24.0232H30.3233V15.6093H25.4152Z" fill="#ED941D"/>
<path d="M34.5302 14.9081H30.3233V15.6092V24.0231H25.4152V24.7243V38.0463V42.9544H29.6221V42.2532L30.3233 33.8393L33.8291 33.1382H38.7372L39.4383 28.9312L43.6453 28.2301H48.5534V24.7243L52.7603 24.0231V19.8162L57.6684 19.115V19.8162L58.3696 42.9544H61.8754V38.0463V14.9081H57.6684V10.7011H34.5302V14.9081Z" fill="#E9A51B"/>
<path d="M30.3232 10.7011V14.9081H34.5301V10.7011H30.3232Z" fill="#ED941D"/>
<path d="M75.8982 10V19.115H80.1051H80.8063V10H75.8982Z" fill="#08A7A5"/>
<path d="M30.3232 10V10.7012H34.5301H57.6683V10H30.3232Z" fill="#D99C2F"/>
</svg>
