<svg width="36" height="36" viewBox="0 0 36 36" fill="none" xmlns="http://www.w3.org/2000/svg">
<g clip-path="url(#clip0_0_2330)">
<path d="M28.8 0H7.2C3.22355 0 0 3.22355 0 7.2V28.8C0 32.7765 3.22355 36 7.2 36H28.8C32.7765 36 36 32.7765 36 28.8V7.2C36 3.22355 32.7765 0 28.8 0Z" fill="#302234"/>
<path d="M10.6226 7.19995C9.23266 7.19995 8.10102 8.3314 8.10001 9.72247C8.10001 11.1135 9.23167 12.2452 10.6226 12.2452C12.0131 12.2452 13.1442 11.1135 13.1442 9.72247C13.1442 8.33155 12.013 7.19995 10.6226 7.19995Z" fill="white"/>
<path d="M12.5172 13.2588H8.73036C8.55023 13.2588 8.40411 13.4049 8.40411 13.5851V25.7738C8.40411 25.954 8.55023 26.1001 8.73036 26.1001H12.5171C12.6973 26.1001 12.8435 25.9539 12.8435 25.7738V13.5851C12.8435 13.4048 12.6974 13.2588 12.5172 13.2588Z" fill="white"/>
<path d="M22.1972 13.1152C20.8113 13.1152 19.5935 13.5372 18.8504 14.2253V13.585C18.8504 13.4048 18.7043 13.2587 18.5241 13.2587H14.8916C14.7113 13.2587 14.5652 13.4048 14.5652 13.585V25.7737C14.5652 25.9539 14.7113 26.1 14.8916 26.1H18.6747C18.8549 26.1 19.0011 25.9538 19.0011 25.7737V19.7434C19.0011 18.0132 19.3193 16.9408 20.9075 16.9408C22.4724 16.9427 22.5895 18.0926 22.5895 19.8468V25.7737C22.5895 25.9539 22.7355 26.1 22.9158 26.1H26.7008C26.8809 26.1 27.027 25.9538 27.027 25.7737V19.0877C27.0269 16.307 26.478 13.1152 22.1972 13.1152Z" fill="white"/>
</g>
<defs>
<clipPath id="clip0_0_2330">
<rect width="36" height="36" fill="white"/>
</clipPath>
</defs>
</svg>
