<svg width="20" height="20" viewBox="0 0 20 20" fill="none" xmlns="http://www.w3.org/2000/svg">
<path fill-rule="evenodd" clip-rule="evenodd" d="M4.16667 20H15.8334C18.135 20 20 18.1341 20 15.8334V4.16667C20 1.86584 18.135 0 15.8334 0H4.16667C1.86584 0 0 1.86584 0 4.16667V15.8334C0 18.1341 1.86584 20 4.16667 20ZM13.2455 15.4599C13.0602 15.5339 12.8532 15.5039 12.692 15.3834C11.6788 14.6266 9.89305 13.2516 9.89305 13.2516C9.89305 13.2516 8.95335 14.1833 8.3451 14.7858C8.2371 14.8928 8.0841 14.9338 7.93935 14.8944C7.79535 14.8551 7.6851 14.7393 7.63785 14.592C7.2591 13.4218 6.5339 11.1191 6.5339 11.1191C6.5339 11.1191 4.97991 10.6017 3.79643 10.2308C3.62543 10.1764 3.50618 10.015 3.50018 9.82995C3.49493 9.6441 3.60368 9.4748 3.77093 9.4102C5.1373 8.87895 7.5269 7.94095 9.80485 7.0468C11.9268 6.2138 13.9521 5.41885 14.963 5.02615C15.0988 4.9734 15.2517 5.00175 15.362 5.0994C15.4715 5.19785 15.521 5.3506 15.4917 5.4979C15.2977 6.45475 14.9451 8.2492 14.5848 10.082C14.2109 11.9839 13.8289 13.9272 13.6077 15.0189C13.5665 15.2205 13.43 15.3866 13.2455 15.4599ZM8.02635 13.736L7.1871 10.8285C7.1871 10.8285 10.991 8.2778 13.1337 6.8406C13.1952 6.79965 13.277 6.8138 13.322 6.87445C13.367 6.9351 13.3595 7.0209 13.3055 7.0721C11.456 8.8235 8.2131 11.8948 8.2131 11.8948L8.02635 13.736Z" fill="#302234"/>
</svg>
