<svg width="20" height="20" viewBox="0 0 20 20" fill="none" xmlns="http://www.w3.org/2000/svg">
<path d="M2.89999 7.7999L11.6 4.5999C13.3782 3.77463 15.2631 3.20241 17.2 2.8999C17.3 2.8999 17.6 2.8999 17.8 3.0999L17.9 3.5999V4.1999L15.2 15.4999C14.9 16.6999 14.5 17.0999 14.1 17.0999C13.2 17.0999 12.7 16.2999 11.9 15.6999L8.99999 12.9999C7.69999 11.7999 8.69999 11.2999 9.59999 10.4999C9.79999 10.2999 13.8 6.8999 13.9 6.4999V6.2999L13.6 6.1999C13.4 6.1999 11.3 7.4999 7.09999 10.1999C6.49999 10.4999 5.99999 10.6999 5.49999 10.5999C4.72125 10.4803 3.97369 10.2084 3.29999 9.7999C2.39999 9.3999 1.69999 9.1999 1.79999 8.5999C1.79999 8.2999 2.29999 8.0999 2.99999 7.7999H2.89999Z" stroke="#302234" stroke-width="1.67"/>
</svg>
