<svg width="36" height="36" viewBox="0 0 36 36" fill="none" xmlns="http://www.w3.org/2000/svg">
<g clip-path="url(#clip0_0_2327)">
<path d="M28.8 0H7.2C3.22355 0 0 3.22355 0 7.2V28.8C0 32.7765 3.22355 36 7.2 36H28.8C32.7765 36 36 32.7765 36 28.8V7.2C36 3.22355 32.7765 0 28.8 0Z" fill="#302234"/>
<path d="M18.9646 25.2C11.5847 25.2 7.3754 20.1324 7.20001 11.7H10.8967C11.0181 17.8892 13.7434 20.5108 15.902 21.0513V11.7H19.383V17.0378C21.5146 16.8081 23.754 14.3757 24.5095 11.7H27.9904C27.4102 14.9973 24.9818 17.4297 23.2548 18.4297C24.9818 19.2405 27.7476 21.3621 28.8 25.2H24.9683C24.1453 22.6323 22.0947 20.6459 19.383 20.3756V25.2H18.9646Z" fill="white"/>
</g>
<defs>
<clipPath id="clip0_0_2327">
<rect width="36" height="36" fill="white"/>
</clipPath>
</defs>
</svg>
