<svg width="20" height="20" viewBox="0 0 20 20" fill="none" xmlns="http://www.w3.org/2000/svg">
<g clip-path="url(#clip0_0_2372)">
<mask id="mask0_0_2372" style="mask-type:luminance" maskUnits="userSpaceOnUse" x="0" y="0" width="20" height="20">
<path d="M20 0H0V20H20V0Z" fill="white"/>
</mask>
<g mask="url(#mask0_0_2372)">
<path fill-rule="evenodd" clip-rule="evenodd" d="M4.16667 20H15.8334C18.135 20 20 18.1341 20 15.8334V4.16667C20 1.86584 18.135 0 15.8334 0H4.16667C1.86584 0 0 1.86584 0 4.16667V15.8334C0 18.1341 1.86584 20 4.16667 20ZM4.50003 9.75C4.50003 6.5795 7.07955 4 10.25 4C13.4205 4 16 6.5795 16 9.75C16 12.9205 13.4205 15.5 10.25 15.5C9.3025 15.5 8.3658 15.2645 7.53405 14.818L4.81004 15.4928C4.79029 15.4975 4.77003 15.5 4.75003 15.5C4.68328 15.5 4.61829 15.4732 4.57054 15.424C4.50854 15.3602 4.48528 15.2682 4.50928 15.1825L5.2408 12.5725C4.75578 11.7135 4.50003 10.74 4.50003 9.75ZM12.146 12.472C12.4295 12.4303 13.0195 12.1195 13.1425 11.779C13.2655 11.4388 13.2655 11.1468 13.2285 11.0863C13.1988 11.0374 13.1294 11.0042 13.0267 10.9552C13.0016 10.9432 12.9745 10.9304 12.9455 10.916C12.798 10.843 12.0723 10.4905 11.9368 10.442C11.8013 10.3933 11.7028 10.3693 11.6045 10.515C11.5062 10.6608 11.2233 10.989 11.1372 11.0865C11.0512 11.1838 10.965 11.196 10.8175 11.123C10.7934 11.1111 10.7604 11.0969 10.7197 11.0794C10.5118 10.9903 10.1019 10.8147 9.6305 10.3995C9.1915 10.013 8.89525 9.53575 8.80925 9.38975C8.72325 9.24375 8.8 9.165 8.874 9.09225C8.9181 9.0488 8.9686 8.9881 9.01915 8.9273C9.04485 8.8964 9.0706 8.86545 9.0955 8.83675C9.1586 8.76405 9.1857 8.7092 9.2227 8.63435C9.2291 8.6214 9.2358 8.60785 9.243 8.5935C9.292 8.49625 9.2675 8.411 9.2305 8.338C9.2063 8.2894 9.0682 7.9574 8.9421 7.6541C8.8781 7.50025 8.81715 7.3538 8.77575 7.2555C8.6701 7.00445 8.56285 7.0051 8.47675 7.00565C8.4653 7.0057 8.4542 7.0058 8.4435 7.00525C8.3573 7.00125 8.25905 7 8.16055 7C8.06205 7 7.9023 7.0365 7.7668 7.1825C7.75815 7.1918 7.74855 7.2019 7.7381 7.2129C7.5843 7.37485 7.25005 7.7269 7.25005 8.3985C7.25005 9.1114 7.77265 9.80035 7.8514 9.90415L7.8528 9.906C7.8577 9.91245 7.8666 9.92505 7.8793 9.943C8.05775 10.1954 8.9923 11.5175 10.3745 12.107C10.7268 12.2573 11.0017 12.3468 11.216 12.4143C11.5695 12.5253 11.8915 12.5092 12.146 12.472Z" fill="#302234"/>
</g>
</g>
<defs>
<clipPath id="clip0_0_2372">
<rect width="20" height="20" fill="white"/>
</clipPath>
</defs>
</svg>
